<svg width="110" height="39" viewBox="0 0 110 39" fill="none" xmlns="http://www.w3.org/2000/svg">
<g clip-path="url(#clip0_227_458)">
<path d="M90.3303 -6.10352e-05C85.9453 -6.10352e-05 81.8736 1.44071 78.5535 3.88378C75.2335 1.44071 71.1617 -6.10352e-05 66.7768 -6.10352e-05C62.3918 -6.10352e-05 58.32 1.44071 55 3.88378C51.6799 1.44071 47.6708 -6.10352e-05 43.2232 -6.10352e-05C38.8383 -6.10352e-05 34.7665 1.44071 31.4465 3.88378C28.1891 1.44071 24.1173 -6.10352e-05 19.6697 -6.10352e-05C8.83256 -6.10352e-05 0 8.70723 0 19.4191C0 30.1309 8.83256 38.8382 19.6697 38.8382C24.0547 38.8382 28.1264 37.3974 31.4465 34.9544C34.7665 37.3974 38.8383 38.8382 43.2232 38.8382C47.6082 38.8382 51.6799 37.3974 55 34.9544C58.2574 37.3974 62.3292 38.8382 66.7768 38.8382C71.1617 38.8382 75.2335 37.3974 78.5535 34.9544C81.8109 37.3974 85.8827 38.8382 90.3303 38.8382C101.167 38.8382 110 30.1309 110 19.4191C110 8.70723 101.167 -6.10352e-05 90.3303 -6.10352e-05ZM78.5535 29.4419C76.1731 26.7482 74.7323 23.2403 74.7323 19.4191C74.7323 15.5979 76.1731 12.0899 78.5535 9.3963C80.9339 12.0899 82.3747 15.5979 82.3747 19.4191C82.3747 23.2403 80.9339 26.7482 78.5535 29.4419ZM55 29.4419C52.6196 26.7482 51.1788 23.2403 51.1788 19.4191C51.1788 15.5979 52.6196 12.0899 55 9.3963C57.3804 12.0899 58.8212 15.5979 58.8212 19.4191C58.8212 23.2403 57.3804 26.7482 55 29.4419ZM31.4465 29.4419C29.066 26.7482 27.6253 23.2403 27.6253 19.4191C27.6253 15.5979 29.066 12.0899 31.4465 9.3963C33.8269 12.0899 35.2677 15.5979 35.2677 19.4191C35.3304 23.2403 33.8269 26.7482 31.4465 29.4419ZM4.07175 19.4191C4.07175 10.9624 11.0877 4.07169 19.6697 4.07169C22.8645 4.07169 25.8713 5.01134 28.377 6.70267C25.3701 10.0854 23.5535 14.533 23.5535 19.4191C23.5535 24.3052 25.3701 28.7528 28.377 32.1355C25.8713 33.7642 22.9271 34.7665 19.6697 34.7665C11.0877 34.7665 4.07175 27.8758 4.07175 19.4191ZM34.5159 32.1355C37.5228 28.7528 39.3394 24.3052 39.3394 19.4191C39.3394 14.533 37.5228 10.0854 34.5159 6.70267C37.0216 5.07396 39.9658 4.07169 43.2232 4.07169C46.4806 4.07169 49.4248 5.01134 51.9305 6.70267C48.9237 10.0854 47.0444 14.533 47.0444 19.4191C47.0444 24.3052 48.8611 28.7528 51.9305 32.1355C49.4248 33.7642 46.4806 34.7665 43.2232 34.7665C40.0285 34.7665 37.0216 33.7642 34.5159 32.1355ZM58.0695 32.1355C61.0763 28.7528 62.9556 24.3052 62.9556 19.4191C62.9556 14.533 61.1389 10.0854 58.0695 6.70267C60.5752 5.07396 63.5194 4.07169 66.7768 4.07169C70.0342 4.07169 72.9783 5.01134 75.4841 6.70267C72.4772 10.0854 70.5979 14.533 70.5979 19.4191C70.5979 24.3052 72.4146 28.7528 75.4841 32.1355C72.9783 33.7642 70.0342 34.7665 66.7768 34.7665C63.5194 34.7665 60.5752 33.7642 58.0695 32.1355ZM90.3303 34.7665C87.1355 34.7665 84.1287 33.8268 81.623 32.1355C84.6298 28.7528 86.5091 24.3052 86.5091 19.4191C86.5091 14.533 84.6925 10.0854 81.623 6.70267C84.1287 5.07396 87.0729 4.07169 90.3303 4.07169C98.9123 4.07169 105.928 10.9624 105.928 19.4191C105.928 27.8758 98.9123 34.7665 90.3303 34.7665Z" fill="white"/>
</g>
<defs>
<clipPath id="clip0_227_458">
<rect width="110" height="38.8383" fill="white"/>
</clipPath>
</defs>
</svg>
