<svg width="72" height="72" viewBox="0 0 72 72" fill="none" xmlns="http://www.w3.org/2000/svg">
<g clip-path="url(#clip0_227_461)">
<path d="M57.3333 36C57.3333 47.7898 47.7898 57.3334 36 57.3334V36H57.3333ZM36 14.6667V36H14.6666C14.6666 24.2102 24.2102 14.6667 36 14.6667Z" fill="#0166B1"/>
<path d="M36 14.6667C47.7898 14.6667 57.3333 24.2102 57.3333 36H36V14.6667ZM14.6666 36H36V57.3333C24.2102 57.3333 14.6666 47.7898 14.6666 36Z" fill="white"/>
<path d="M36 14.6667V15.8363C47.1172 15.8363 56.1637 24.8807 56.1637 36H57.3333C57.3333 24.2187 47.7814 14.6667 36 14.6667ZM36 56.1637C24.8828 56.1637 15.8363 47.1193 15.8363 36H14.6667C14.6667 47.7813 24.2187 57.3333 36 57.3333M36 0C16.1183 0 0 16.1183 0 36C0 55.8817 16.1183 72 36 72C55.8817 72 72 55.8817 72 36C72 16.1183 55.8817 0 36 0ZM69.659 36C69.659 54.5884 54.5905 69.659 36 69.659C17.4095 69.659 2.34102 54.5884 2.34102 36C2.34102 17.4116 17.4116 2.34102 36 2.34102C54.5884 2.34102 69.659 17.4116 69.659 36Z" fill="white"/>
<path d="M20.6156 18.6329C21.766 17.4295 22.4173 16.0392 21.2669 14.712C20.641 13.9916 19.59 13.8341 18.7187 14.189L18.632 14.2226L18.6595 14.147C18.7885 13.8047 18.871 12.7126 17.9342 11.9587C17.4774 11.5912 16.9043 11.4547 16.3249 11.5135C15.2443 11.6227 14.4132 12.3556 12.1505 14.8611C11.4674 15.6171 10.4735 16.81 9.8772 17.5828L16.0923 23.438C18.152 21.174 18.9915 20.3319 20.6156 18.6329ZM12.5058 17.2006C13.7577 15.6801 15.0878 14.3003 15.6905 13.7543C15.8808 13.5821 16.0881 13.4099 16.3397 13.3427C16.7478 13.2314 17.1687 13.5191 17.2638 13.9349C17.359 14.3528 17.0947 14.7498 16.8007 15.0774C16.1388 15.8187 13.7111 18.341 13.7111 18.341L12.5058 17.2006ZM14.9398 19.4939C14.9398 19.4939 17.304 17.0116 18.0759 16.2177C18.3825 15.9027 18.5792 15.7116 18.7906 15.6087C19.0634 15.4764 19.3616 15.4491 19.6281 15.6255C19.8903 15.7998 20.0108 16.1001 19.9453 16.3984C19.867 16.7533 19.5752 17.0914 19.3341 17.3497C19.0085 17.6962 16.2044 20.6763 16.2001 20.6805L14.9398 19.4939ZM36.7106 11.65L38.7005 7.22292L38.8274 6.8302L38.7914 7.23972L39.0008 13.1558C39.6986 13.2209 40.4197 13.3175 41.1303 13.4351L40.8067 4.67337C39.8128 4.56416 38.8231 4.48646 37.8335 4.44446L35.8731 9.27684L35.8034 9.63596L35.7336 9.27684L33.7754 4.44446C32.7857 4.48646 31.796 4.56416 30.8021 4.67337L30.4786 13.4351C31.1891 13.3175 31.9102 13.223 32.6081 13.1558L32.8174 7.23972L32.7815 6.8302L32.9084 7.22292L34.8983 11.65H36.7106ZM53.2369 20.8086C53.7254 21.3294 54.4296 22.1695 54.825 22.6798L62.1081 18.089C61.7443 17.6164 61.1649 16.8982 60.7314 16.3921L56.1192 19.4204L55.8042 19.6892L56.0389 19.349L58.0753 15.3126L56.6352 13.8824L52.5687 15.9048L52.2261 16.1379L52.4989 15.825L55.5504 11.2468C55.0133 10.7931 54.4973 10.3773 53.8396 9.87327L49.2169 17.0998C49.8026 17.5471 50.5745 18.2045 51.0672 18.6518L55.4193 16.4089L55.6984 16.2051L55.4933 16.4824L53.2369 20.8086Z" fill="white"/>
</g>
<defs>
<clipPath id="clip0_227_461">
<rect width="72" height="72" fill="white"/>
</clipPath>
</defs>
</svg>
