<svg width="103" height="103" viewBox="0 0 103 103" fill="none" xmlns="http://www.w3.org/2000/svg">
<g clip-path="url(#clip0_12_101)">
<path fill-rule="evenodd" clip-rule="evenodd" d="M25.7318 61.7484H22.0715V56.8532H19.5178V69.0893H22.0715V63.6154H25.7302L25.7308 69.0893H28.2855V56.8532H25.7318V61.7484ZM86.6637 56.8532V58.7207H90.1328V69.0893H92.6864V58.7207H96.1544V56.8532H86.6637ZM73.1804 56.8532H70.6267V69.0893H77.9313V67.2212H73.1793L73.1804 56.8532ZM43.9587 67.054C43.9213 67.1812 43.8272 67.2159 43.6926 67.2159C43.5632 67.2159 43.4639 67.1657 43.4232 67.0481L40.7344 56.8537H37.7553L40.845 68.0158C40.9951 68.7506 41.4846 69.091 42.1777 69.091H44.5336C45.2267 69.091 45.675 68.7372 45.8487 68.0335L48.864 56.8537H46.6085L43.9587 67.054ZM10.9227 58.7646L10.9211 67.1774C10.9211 68.5384 11.6195 69.0904 12.8283 69.0904L18.5389 69.0893V67.218H14.4089C13.7003 67.218 13.4732 67.046 13.4732 66.2829L13.4764 59.6548C13.4764 58.9179 13.6469 58.7207 14.4105 58.7207H18.5389V56.8537H12.8336C11.5282 56.8532 10.9227 57.5275 10.9227 58.7646ZM32.3723 66.2829L32.3733 63.6154H37.4486V61.7484H32.3765L32.376 59.6548C32.376 58.9462 32.5326 58.7207 33.3106 58.7207H37.5026V56.8537L31.7316 56.8558C30.4123 56.8558 29.8223 57.5142 29.8223 58.7646L29.8207 67.1774C29.8207 68.4695 30.4502 69.0904 31.7284 69.0904L38.0343 69.0893V67.218H33.3085C32.5994 67.218 32.3723 67.0593 32.3723 66.2829ZM56.3161 63.9189C57.4976 63.9189 58.2238 63.3814 58.2238 62.0059L58.2217 58.7646C58.2217 57.4869 57.6194 56.8537 56.3129 56.8537H49.1959V69.0893H51.7496V58.7207H54.7334C55.5242 58.7207 55.6674 58.9462 55.6674 59.6548L55.6706 61.1451C55.6706 61.8676 55.4713 62.0813 54.7355 62.0813L53.3403 62.0824C52.7985 62.0824 52.4939 62.4089 52.4939 62.9363C52.4939 63.2013 52.6286 63.3931 52.7349 63.5834L55.9587 69.0899H59.1188L55.7428 63.9237L56.3161 63.9189ZM67.17 56.8553H61.5437C60.1966 56.8553 59.635 57.5409 59.635 58.764L59.6329 67.1769C59.6329 68.5662 60.373 69.0899 61.5405 69.0899H67.171C68.3942 69.0899 69.0808 68.5106 69.0808 67.1769L69.0787 58.764C69.0787 57.5142 68.4893 56.8553 67.17 56.8553ZM65.5931 67.218H63.1206C62.3848 67.218 62.1855 67.0187 62.1855 66.2829V59.6548C62.1855 59.0152 62.2731 58.7207 63.1206 58.7207H65.5941C66.261 58.7207 66.5261 58.8356 66.5261 59.6548L66.5282 66.2829C66.5282 67.0727 66.2872 67.218 65.5931 67.218ZM80.9787 66.2829L80.9798 63.6154H86.0551V61.7484H80.983V59.6548C80.983 58.9462 81.1396 58.7207 81.9171 58.7207H86.1085V56.8537L80.338 56.8558C79.0176 56.8558 78.4283 57.5142 78.4283 58.7646L78.4272 67.1774C78.4272 68.4695 79.0567 69.0904 80.3348 69.0904L86.6408 69.0893V67.218H81.9149C81.2064 67.218 80.9787 67.0593 80.9787 66.2829ZM75.8869 34.6315L62.286 34.6331C61.9386 34.6331 61.711 34.5295 61.711 34.0523V32.0351C61.711 31.4532 61.3979 31.1454 60.8293 31.1454L45.2598 31.1459C44.6779 31.1459 44.3787 31.4735 44.3787 32.0297L44.3776 34.0469C44.3776 34.4728 44.1767 34.6278 43.8026 34.6278L34.8896 34.6304C34.2078 34.6304 33.8086 34.9559 33.6029 35.3834L29.2634 43.8662C29.2058 43.9774 29.1754 44.1006 29.1747 44.2258C29.1747 44.562 29.3948 44.9953 30.0024 44.9953L43.8016 44.9937C44.2274 44.9937 44.3765 45.1871 44.3765 45.5746L44.3755 47.5917C44.3755 48.1993 44.7287 48.4761 45.2587 48.4761L53.0443 48.4756L60.8277 48.475C61.3578 48.475 61.7105 48.2185 61.7105 47.5971L61.7094 45.5799C61.7094 45.1674 61.8846 44.9991 62.2843 44.9991L70.9371 44.9969C71.534 44.9969 71.9631 44.8398 72.2623 44.2841L76.5527 35.9011C76.6467 35.72 76.7124 35.6169 76.7124 35.4015C76.7141 34.8319 76.223 34.6315 75.8869 34.6315ZM72.4595 38.0108L70.391 42.0564C70.2617 42.2909 70.0309 42.3011 69.869 42.3011H59.6014C59.1755 42.3011 59.02 42.4945 59.02 42.8814L59.0178 45.2085C59.0178 45.5954 58.849 45.7803 58.4354 45.7803H53.0454L47.6516 45.7814C47.2909 45.7814 47.0702 45.6547 47.0702 45.2026L47.0691 42.8755C47.0691 42.4502 46.8741 42.2984 46.4878 42.2984H33.9C33.5906 42.2984 33.3769 42.1034 33.3769 41.833C33.3769 41.755 33.3966 41.6807 33.4308 41.6161L35.4993 37.5705C35.5784 37.4267 35.7082 37.3284 36.0208 37.3284L46.4878 37.3289C46.849 37.3289 47.0734 37.1836 47.0734 36.7449L47.0729 34.4183C47.0729 34.0053 47.253 33.8396 47.6527 33.8396L58.4375 33.8391C58.8249 33.8391 59.0178 34.0111 59.0178 34.4236L59.0168 36.7502C59.0168 37.1499 59.2027 37.3273 59.6024 37.3273H71.9909C72.3853 37.3273 72.514 37.587 72.514 37.7928C72.5131 37.8687 72.4944 37.9433 72.4595 38.0108Z" fill="white"/>
<path fill-rule="evenodd" clip-rule="evenodd" d="M63.734 32.9339C63.734 32.7276 63.5662 32.6806 63.3926 32.6806H62.9763V33.6376H63.111V33.2187H63.2969L63.5705 33.6376H63.7207L63.4359 33.2048C63.6069 33.2005 63.734 33.122 63.734 32.9339ZM63.3616 33.1043H63.111V32.795H63.3669C63.4674 32.795 63.5999 32.8062 63.5999 32.9312C63.5994 33.0253 63.555 33.1043 63.3616 33.1043Z" fill="white"/>
<path fill-rule="evenodd" clip-rule="evenodd" d="M63.2948 32.3044C63.1824 32.304 63.071 32.3259 62.9671 32.3686C62.8631 32.4113 62.7686 32.4742 62.6889 32.5535C62.6093 32.6328 62.546 32.727 62.5028 32.8308C62.4596 32.9346 62.4373 33.0459 62.4372 33.1583C62.4372 33.6296 62.816 34.0116 63.2948 34.0116C63.7677 34.0116 64.1487 33.6333 64.1487 33.1577C64.1487 32.687 63.7677 32.3044 63.2948 32.3044ZM63.2948 33.877C63.1074 33.8719 62.9294 33.7938 62.7986 33.6595C62.6678 33.5251 62.5947 33.345 62.5947 33.1575C62.5947 32.97 62.6678 32.7899 62.7986 32.6555C62.9294 32.5211 63.1074 32.4431 63.2948 32.438C63.4844 32.4383 63.6661 32.5137 63.8001 32.6477C63.9341 32.7817 64.0095 32.9634 64.0098 33.1529C64.0098 33.5542 63.6913 33.877 63.2948 33.877ZM98.0418 57.535C98.0418 57.3293 97.874 57.2822 97.7003 57.2822H97.284V58.2382H97.4187V57.8198H97.6047L97.8782 58.2382H98.0284L97.7436 57.8059C97.9141 57.8022 98.0418 57.7226 98.0418 57.535ZM97.6688 57.7049H97.4182V57.3961H97.6741C97.7746 57.3961 97.9071 57.4073 97.9071 57.5329C97.9071 57.6269 97.8622 57.7049 97.6688 57.7049Z" fill="white"/>
<path fill-rule="evenodd" clip-rule="evenodd" d="M97.602 56.9055C97.1269 56.9055 96.7443 57.2886 96.7443 57.7594C96.7443 58.2302 97.1232 58.6133 97.602 58.6133C98.0749 58.6133 98.4559 58.2345 98.4559 57.7594C98.4559 57.2886 98.0749 56.9055 97.602 56.9055ZM97.602 58.4787C97.4112 58.4787 97.2283 58.4029 97.0934 58.268C96.9585 58.1331 96.8827 57.9502 96.8827 57.7594C96.8827 57.5687 96.9585 57.3857 97.0934 57.2508C97.2283 57.116 97.4112 57.0402 97.602 57.0402C97.7915 57.0405 97.9732 57.1159 98.1072 57.2499C98.2412 57.3839 98.3167 57.5656 98.3169 57.7551C98.3169 58.1559 97.9985 58.4787 97.602 58.4787Z" fill="white"/>
</g>
<defs>
<clipPath id="clip0_12_101">
<rect width="103" height="103" fill="white"/>
</clipPath>
</defs>
</svg>
