<svg width="72" height="65" viewBox="0 0 72 65" fill="none" xmlns="http://www.w3.org/2000/svg">
<g clip-path="url(#clip0_227_452)">
<mask id="mask0_227_452" style="mask-type:luminance" maskUnits="userSpaceOnUse" x="0" y="0" width="72" height="65">
<path d="M72 0H0V64.7027H72V0Z" fill="white"/>
</mask>
<g mask="url(#mask0_227_452)">
<path fill-rule="evenodd" clip-rule="evenodd" d="M69.5774 52.2708C68.5655 51.1514 44.7446 24.9164 36.1217 24.9164C27.5006 24.9164 3.6786 51.1514 2.66841 52.2693L2.66721 52.2708C2.56845 52.3807 0.243286 55.0326 0.243286 58.1247C0.243286 60.5316 0.402852 62.954 0.405527 62.9774C0.410636 63.0888 0.46658 64.1121 1.0365 64.3909C1.12869 64.4361 1.22867 64.4595 1.33132 64.4595C1.54294 64.4595 1.77913 64.3648 2.03502 64.1783C2.29189 63.9516 26.5593 42.5654 36.1217 42.5654C45.686 42.5654 69.9544 63.9516 70.1976 64.1681C70.4603 64.3624 70.7011 64.4595 70.9152 64.4595C71.0174 64.4595 71.1146 64.4361 71.2095 64.3921C71.7787 64.1148 71.8346 63.0902 71.8395 62.975C71.8395 62.9567 72 60.5342 72 58.1274C72 55.0326 69.6746 52.3807 69.5774 52.2708ZM69.5433 27.3272C68.5314 26.2092 44.7373 0 36.1217 0C27.5099 0 3.71121 26.2092 2.70223 27.3259L2.70102 27.3272C2.60226 27.4371 0.278309 30.0863 0.278309 33.176C0.278309 35.5804 0.439334 38.0002 0.44055 38.0235C0.445658 38.1349 0.501616 39.1571 1.07032 39.4356C1.16251 39.4808 1.26248 39.5029 1.36512 39.5029C1.57675 39.5029 1.81172 39.4083 2.06737 39.2218C2.32594 38.9951 26.5685 17.6308 36.1217 17.6308C45.6763 17.6308 69.9203 38.9951 70.1635 39.2115C70.4262 39.4057 70.6646 39.5017 70.8787 39.5017C70.9833 39.5017 71.0806 39.4796 71.1754 39.4341C71.7422 39.1571 71.7981 38.1335 71.803 38.0182C71.803 38.0002 71.9636 35.5804 71.9636 33.176C71.966 30.0863 69.643 27.4371 69.5433 27.3272Z" fill="white"/>
</g>
</g>
<defs>
<clipPath id="clip0_227_452">
<rect width="72" height="64.7027" fill="white"/>
</clipPath>
</defs>
</svg>
