<svg width="72" height="55" viewBox="0 0 72 55" fill="none" xmlns="http://www.w3.org/2000/svg">
<path d="M18.8684 0H26.6891V54.5169H18.8684V0ZM52.3944 0V6.57791H58.4577V54.5169H66.0351V6.57791H72V0H52.3944ZM0 54.5169H7.57755V29.7841H14.0311V23.2964H7.57755V6.57791H15.9965V0H0V54.5169ZM53.399 50.9457C53.4006 52.1404 53.4013 53.3308 53.401 54.5169H46.3133C46.3071 52.4545 46.3024 50.3818 46.2992 48.299C46.2934 46.2194 46.2836 44.1362 46.2611 42.0602C46.2163 37.9121 46.1212 33.7802 45.9044 29.7841H37.5682V54.5169H30.7623V0H46.7535C47.7218 1.87546 48.5431 3.82324 49.2099 5.8258C49.8999 7.89538 50.4709 10.0027 50.9201 12.1375C51.3847 14.3078 51.754 16.5457 52.051 18.8227C52.3479 21.099 52.5737 23.4281 52.7482 25.7779C52.9226 28.1264 53.0469 30.5158 53.1372 32.9074C53.2276 35.2967 53.2852 37.7198 53.3229 40.1247C53.3607 42.5238 53.3795 44.9612 53.3896 47.3512C53.3946 48.5524 53.3977 49.7506 53.399 50.9457ZM45.4216 23.2964C44.8125 17.0629 43.7678 11.2936 41.9588 6.57791H37.5682V23.2964H45.4216Z" fill="white"/>
</svg>
