<svg width="110" height="39" viewBox="0 0 110 39" fill="none" xmlns="http://www.w3.org/2000/svg">
<path fill-rule="evenodd" clip-rule="evenodd" d="M55 0C24.6248 0 0 8.71178 0 19.4584C0 30.2053 24.6248 38.9172 55 38.9172C85.3754 38.9172 110 30.2053 110 19.4584C110 8.71178 85.3754 0 55 0ZM54.9888 0.388008C84.7599 0.388008 109.296 8.92636 109.296 19.4593C109.296 29.9919 84.7599 38.5309 54.9888 38.5309C25.2179 38.5309 0.57084 29.9919 0.57084 19.4593C0.57084 8.92636 25.2179 0.388008 54.9888 0.388008Z" fill="white"/>
<path fill-rule="evenodd" clip-rule="evenodd" d="M106.151 24.2682C103.726 26.8036 100.785 28.4707 97.7486 29.815C88.811 33.7452 78.8997 35.6 68.7403 36.8758C52.4888 38.8326 35.7599 37.08 21.1318 33.1838C14.6006 31.3462 8.08842 28.8961 3.44785 23.5367C2.47404 22.1924 1.34704 20.8483 1.40445 19.1129L1.61437 18.5344C1.67179 18.7898 1.80546 19.062 2.0728 19.2151C2.60771 19.4533 3.42879 19.1981 3.75355 19.7425C3.98276 20.372 3.81074 21.1545 4.23079 21.716C5.54848 24.2852 8.18396 26.9395 11.0675 28.2836C18.7826 32.4354 27.5481 34.3067 36.5238 35.736C49.4905 37.7606 64.4052 37.4374 77.1046 35.1235C84.4189 33.8304 91.5997 32.2482 98.0543 29.0835C101.109 27.7053 103.631 24.9487 105.158 22.3116C105.77 21.1887 106.266 20.0149 106.246 18.6366C106.285 18.4834 106.361 18.2622 106.59 18.2452C107.144 18.0751 108.041 18.4664 108.194 17.7176L108.29 17.4113C109.627 19.8956 108.004 22.4138 106.151 24.2682Z" fill="white"/>
<path fill-rule="evenodd" clip-rule="evenodd" d="M105.54 18.4834C105.597 20.8143 104.261 22.6689 102.905 24.4893C100.881 26.9737 97.9968 28.5729 95.0746 29.5769C97.691 28.1816 100.804 26.5142 102.503 23.911C103.592 22.2776 104.681 20.6272 104.624 18.5686C104.891 18.5174 105.235 18.5344 105.54 18.4834Z" fill="white"/>
<path fill-rule="evenodd" clip-rule="evenodd" d="M5.22393 19.7255C5.68213 22.72 7.95472 25.2891 10.8383 27.1607L12.9007 28.4877C9.2152 27.0927 5.45312 23.911 4.46005 20.423L4.3645 19.5892L5.22393 19.7255Z" fill="white"/>
<path fill-rule="evenodd" clip-rule="evenodd" d="M54.9332 2.13904C27.9859 2.13904 6.14026 9.68021 6.14026 18.9828C6.14026 28.2848 27.9859 35.8261 54.9332 35.8261C81.88 35.8261 103.726 28.2848 103.726 18.9828C103.726 9.68021 81.88 2.13904 54.9332 2.13904ZM54.8829 3.62189C80.974 3.62189 102.127 10.5363 102.127 19.0653C102.127 27.5942 80.974 34.5085 54.8829 34.5085C28.7914 34.5085 7.63922 27.5942 7.63922 19.0653C7.63922 10.5363 28.7914 3.62189 54.8829 3.62189Z" fill="white"/>
<path fill-rule="evenodd" clip-rule="evenodd" d="M54.8829 4.90527C29.5867 4.90527 9.07971 11.2453 9.07971 19.0652C9.07971 26.8853 29.5867 33.2249 54.8829 33.2249C80.179 33.2249 100.686 26.8853 100.686 19.0652C100.686 11.2453 80.179 4.90527 54.8829 4.90527ZM42.3291 7.49758C42.5064 7.49602 42.6839 7.49633 42.8617 7.49823C43.81 7.50834 44.7642 7.56646 45.7086 7.65936L48.3899 7.93866L55.9107 8.93166C59.7579 9.44319 64.2324 9.55194 67.9583 8.68352C68.3757 8.66764 68.9155 8.51292 69.2465 8.80748C69.4205 8.94683 69.4552 9.13325 69.4029 9.33493C69.2289 10.0946 68.3063 10.6067 67.6096 10.9789C64.337 12.654 59.7409 11.925 56.2239 11.1959L50.531 9.86237H50.5138C50.4615 10.0793 50.566 10.3587 50.4266 10.5445C48.2157 11.7387 46.1788 13.6935 44.9077 15.6479C46.1613 15.6014 47.4497 15.555 48.6509 15.3222C48.4768 14.4067 48.8251 13.5536 49.6607 12.9797C50.1134 12.7163 50.688 12.5611 51.2275 12.6852C51.6108 12.8093 51.9413 13.1503 52.0459 13.4919C52.2374 14.1898 51.9237 14.8412 51.3668 15.3222C50.9836 15.6168 50.566 15.8497 50.1134 15.9891L50.1308 16.0355C50.4443 16.2836 50.8446 16.4699 51.0883 16.7803C51.1058 16.8885 51.0709 16.982 51.0013 17.059C50.8621 17.1989 50.688 17.199 50.4964 17.2143C49.8522 17.1679 49.4691 16.5939 49.0166 16.2058C47.4498 16.4234 45.8306 16.5628 44.2114 16.6869L43.1842 17.9899L40.3988 21.8676C38.2051 24.8148 34.9148 28.2428 30.5102 27.7619C28.4558 27.5758 26.297 26.2265 25.7052 24.4116C24.9043 22.1314 26.2102 20.0217 28.2122 18.6413C28.961 18.176 29.8484 17.8815 30.806 17.9899C31.015 18.0365 31.2241 18.1762 31.3111 18.3624C31.3633 18.5173 31.3632 18.7187 31.2587 18.8276C30.4057 19.5564 29.2393 19.9754 28.6475 20.9524C28.1601 21.697 28.0032 22.8603 28.5953 23.6048C29.5178 24.7217 31.2414 24.8923 32.6343 24.4889C36.3774 23.3259 39.0408 19.758 41.4088 17.0278C40.0856 17.1525 38.7797 17.3849 37.7351 18.1298C37.6307 18.1762 37.4566 18.2071 37.3347 18.145C37.178 18.0674 37.1608 17.9123 37.1258 17.7727C37.2129 17.059 38.101 16.7646 38.7103 16.5318C39.8766 16.1284 41.1823 16.0201 42.4359 15.8185C44.2292 13.4455 46.823 11.0566 49.6085 9.7225C45.0995 8.77647 38.4316 7.39587 35.0715 11.2894C34.6362 11.8479 34.3403 12.5611 34.584 13.2743C34.8626 13.8017 35.4545 14.0969 36.0815 14.1274C37.8222 14.1586 39.0235 12.8404 40.1725 11.7386C40.2943 11.6616 40.4509 11.5839 40.6252 11.6303C40.7644 11.6615 40.8341 11.8008 40.8865 11.8937C40.9212 12.995 40.1028 13.8176 39.3892 14.6549C37.9267 16.0977 35.9246 17.0749 33.7485 16.4546C32.582 16.1283 31.7463 15.027 31.6417 13.9728C31.3806 11.8479 32.8954 10.0169 34.9149 9.05562C37.0816 7.94313 39.67 7.52099 42.3291 7.49758ZM81.3809 13.4455L84.3053 13.6312L76.245 24.9388C76.1233 25.2335 75.9139 25.5901 76.1232 25.9314C76.2273 26.0554 76.3668 26.2108 76.5585 26.2418C77.307 26.3039 77.8813 25.9004 78.4734 25.5281C79.5182 24.7528 80.4755 23.7755 81.4509 22.9068C81.642 22.7828 81.816 22.6123 82.06 22.6589C82.3381 22.7519 82.7037 22.9535 82.7737 23.2482L82.7385 23.3879C80.7888 25.2491 78.7867 27.824 75.8622 28.0721C75.0784 28.1187 74.4171 27.8549 73.9473 27.312C73.6333 26.9397 73.5814 26.4435 73.6332 25.9628C72.1192 27.157 70.2384 28.4287 68.1323 27.6067C66.8958 26.9554 66.513 25.7298 66.6 24.4735C66.67 24.0701 66.8264 23.6979 66.9657 23.3103C65.7298 24.0392 64.3547 25.1404 62.7178 24.5199C61.9347 24.1942 61.5165 23.4652 61.4642 22.7362C61.4119 22.5036 61.4818 22.24 61.4818 22.0227L57.4778 27.6686L54.8661 27.6534C54.814 27.6223 54.7266 27.5757 54.7443 27.5137L54.8139 27.2963L58.9924 21.3868C59.2188 20.9215 59.6015 20.3477 59.2704 19.8047C58.94 19.541 58.4873 19.7736 58.1563 19.8822C56.398 20.7662 55.0402 22.4416 53.8216 23.8375C52.1851 25.8385 49.9395 28.3666 46.8056 27.8549C45.3258 27.6997 44.3158 26.3657 44.0026 25.2024C44.0026 25.1558 43.9851 25.1095 43.9501 25.0939C43.2366 25.6369 42.6968 26.3971 41.9134 26.7847C41.8089 26.8158 41.6523 26.8158 41.5304 26.7847C41.2171 26.5521 41.1301 26.2264 41.0603 25.9004C41.1822 25.4974 41.6872 25.3421 41.983 25.0318C44.1592 22.9689 44.786 19.8977 47.9546 18.6413C48.738 18.3156 49.5736 18.1142 50.5138 18.1298C50.7748 18.1298 51.0012 18.3313 51.1057 18.5481C51.2059 18.6955 51.3146 18.9284 51.2101 19.1067C50.8969 19.3859 50.4266 19.386 50.0612 19.5411C48.2681 20.2701 46.527 21.8987 46.3704 23.6826C46.3008 24.427 46.5445 25.1715 47.3107 25.5747C48.2682 26.0091 49.3994 25.6367 50.1656 25.0628C51.5583 23.9305 52.2372 22.5191 52.4287 20.9214C52.4809 20.2701 52.2374 19.727 52.0633 19.1533C52.0633 18.7656 52.4984 18.4707 52.8466 18.3156C53.1077 18.207 53.5259 18.1141 53.7868 18.2845C54.3963 18.843 54.5006 19.6031 54.5355 20.3631C54.5355 20.5803 54.5528 20.7973 54.5005 20.999C56.2239 19.6807 57.6689 17.3537 60.1936 17.6642C60.8204 17.7419 61.4119 18.2381 61.5512 18.7966C61.6559 19.1687 61.6036 19.634 61.5342 19.9907C62.5267 18.8118 63.8495 17.664 65.5905 17.9123C66.252 18.0054 66.9311 18.5171 67.1051 19.1067C67.3139 19.8046 67.0528 20.4873 66.513 20.9833C66.1303 21.2782 65.7121 21.4644 65.19 21.4177C64.7549 21.3713 64.3547 21.2007 64.1106 20.8284C63.8843 20.5027 63.8843 19.9754 64.1106 19.665C63.5362 19.7271 63.1705 20.3166 62.9965 20.7509C62.8048 21.3402 62.5267 22.1622 63.1011 22.6898C63.4839 23.1861 64.2324 23.0156 64.7722 22.938C68.2364 21.883 70.3083 17.7263 74.4517 18.1762C75.2008 18.2536 75.9493 18.533 76.3144 19.1997C76.4538 19.479 76.5761 19.7428 76.6279 20.0528L81.3809 13.4455Z" fill="white"/>
<path fill-rule="evenodd" clip-rule="evenodd" d="M74.9392 20.1305C75.2878 20.751 74.9221 21.4644 74.6434 22.0227L75.1655 22.1936C74.156 23.5119 73.1112 25.2179 71.3179 25.8075C70.9181 25.9316 70.326 25.9628 69.9773 25.7299C69.4029 25.3422 69.3512 24.6752 69.4729 24.0702C69.9773 22.24 71.6142 20.0684 73.8773 19.7117C74.33 19.6498 74.6957 19.8358 74.9392 20.1305Z" fill="white"/>
<path fill-rule="evenodd" clip-rule="evenodd" d="M50.9992 13.3732C51.2093 13.5267 51.1522 13.8159 51.1138 14.02C50.9036 14.6326 50.1971 14.956 49.586 15.1259C49.4523 14.4115 49.6434 13.6631 50.3689 13.3056C50.56 13.2374 50.8464 13.2374 50.9992 13.3732Z" fill="white"/>
</svg>
