<svg width="110" height="15" viewBox="0 0 110 15" fill="none" xmlns="http://www.w3.org/2000/svg">
<path d="M94.1787 7.24296H98.9895L96.5619 3.42913L94.1787 7.24296ZM86.2362 13.2208V11.5616L87.9134 11.3708C88.4935 11.2972 88.7391 10.7658 88.811 10.6443L92.9902 3.84158C93.3299 3.30677 92.9979 2.83699 92.5606 2.78822L90.3649 2.5298V0.853498H99.8905C100.425 0.853498 100.764 1.21717 100.982 1.53292L106.546 10.0376C106.984 10.7162 107.324 11.2519 107.883 11.3255L109.633 11.5214V13.2208H98.9184V11.5445L100.279 11.3742C100.935 11.3024 101.47 11.0097 100.935 10.2079L100.425 9.42925H92.8182L92.2355 10.3782C91.8727 10.9601 92.2355 11.3024 92.7951 11.3742L94.1556 11.5445V13.2208H86.2362Z" fill="white"/>
<path d="M77.247 10.8378H74.0886V3.20934H77.247C80.259 3.20934 81.5237 3.91529 81.5237 7.02402C81.5237 10.1593 80.259 10.8378 77.247 10.8378ZM79.1406 0.85362H66.8897L66.8871 2.52992L68.4222 2.68823C68.9972 2.77208 69.2291 3.18538 69.2291 3.74244V10.4014C69.2291 10.8627 69.034 11.3025 68.5249 11.3744L66.8802 11.5883V13.2158L79.1406 13.2209C84.7779 13.2209 87.2081 10.475 87.2081 6.85545C87.2081 3.59954 84.7779 0.85362 79.1406 0.85362Z" fill="white"/>
<path d="M0.366699 13.2211H10.2782V11.5679L8.57964 11.3745C8.18944 11.3257 7.80096 11.0835 7.80096 10.2544V8.26404H15.4303V10.1594C15.4303 10.7156 15.3328 11.2521 14.6773 11.3257L12.9514 11.5217V13.2211H22.8646V11.5217L21.1147 11.3257C20.7758 11.2786 20.3865 11.01 20.3865 10.3049V3.86578C20.3865 3.20946 20.6286 2.77221 21.1386 2.72429L22.8646 2.53004V0.853742H12.9514V2.50608L14.6773 2.72429C15.26 2.79702 15.4303 3.25909 15.4303 3.86578V5.7851H7.80096V3.84182C7.80096 3.11277 8.09275 2.77221 8.60274 2.72429L10.2782 2.53004V0.853742H0.389803V2.53004L2.043 2.72429C2.70017 2.79702 2.86874 3.28305 2.84479 3.91541V10.1825C2.84479 10.8876 2.65054 11.3026 2.01904 11.3745L0.366699 11.5679V13.2211Z" fill="white"/>
<path d="M33.458 2.74727C30.6411 2.74727 29.0367 3.79292 29.0367 6.9992C29.0367 10.2543 30.6411 11.3025 33.458 11.3025C36.2767 11.3025 37.8811 10.2543 37.8811 6.9992C37.8811 3.79292 36.2767 2.74727 33.458 2.74727ZM23.3523 6.97524C23.3523 3.08869 26.4867 0.366728 33.4828 0.366728C40.4328 0.366728 43.5672 3.08869 43.5672 6.97524C43.5672 10.9602 40.4328 13.6573 33.4828 13.6573C26.4867 13.6573 23.3523 10.9602 23.3523 6.97524Z" fill="white"/>
<path d="M44.119 13.2211H52.0402V11.5679L50.3382 11.3745C49.8513 11.3257 49.5604 10.9167 49.5604 10.3528V4.06002L56.1466 12.735C56.3631 13.0268 56.7764 13.2211 57.1649 13.2211H63.3849V3.84182C63.3849 3.40199 63.5022 2.79959 64.1388 2.72429L65.8622 2.53004V0.853742H57.9427V2.50608L59.6687 2.72429C60.2779 2.79788 60.4208 3.30701 60.4208 3.88974V10.0139L53.885 1.38769C53.6429 1.07194 53.3271 0.853742 52.8651 0.853742H44.119V2.53004L45.7705 2.72429C46.3524 2.81071 46.5723 3.10678 46.5723 3.91541V10.1825C46.5723 10.9261 46.3695 11.2838 45.7457 11.3745L44.119 11.5679V13.2211Z" fill="white"/>
</svg>
