<svg width="110" height="17" viewBox="0 0 110 17" fill="none" xmlns="http://www.w3.org/2000/svg">
<g clip-path="url(#clip0_227_84)">
<path d="M11.1739 6.35713H3.57009V0H0V16.2832H3.57009V9.53998H11.1739V16.2832H14.7424V0H11.1739V6.35713Z" fill="white"/>
<path d="M88.6987 0.928753C87.9495 1.69505 87.9195 2.81314 87.9 3.4649V16.2832H91.4639V11.0878H99.0365V16.2832H102.616V0H91.4892C90.4323 0.00973944 89.4431 0.163233 88.6987 0.928753ZM92.3739 3.18168H99.0373V7.90843H91.4647V4.1116C91.4795 3.92461 91.4436 3.58567 91.6018 3.38504C91.7701 3.1735 92.0389 3.19064 92.3739 3.18168Z" fill="white"/>
<path d="M63.4478 0H52.3008V16.2832H55.8709V3.18168H62.5646C62.8973 3.19064 63.17 3.1735 63.3356 3.38465C63.4949 3.58528 63.4634 3.92422 63.4747 4.11121V16.2828H67.0412V3.4649C67.0214 2.81314 66.9933 1.69505 66.2477 0.928753C65.4993 0.163233 64.5113 0.00973944 63.4478 0Z" fill="white"/>
<path d="M45.5724 12.17C45.5595 12.3609 45.5919 12.6924 45.4345 12.8946C45.265 13.1081 44.9939 13.0894 44.6627 13.0984H37.9709V0H34.3993V16.2832H45.549C46.6094 16.275 47.5982 16.1172 48.3442 15.3517C49.0934 14.5866 49.1218 13.47 49.1421 12.8159V0H45.5735V12.17H45.5724Z" fill="white"/>
<path d="M84.9392 3.4649C84.9217 2.81314 84.8925 1.69505 84.1468 0.928753C83.4008 0.163233 82.4105 0.00973944 81.3512 0H73.7731H70.2065V16.2832H81.3512C82.4105 16.275 83.4008 16.1172 84.1468 15.3517C84.8925 14.5866 84.9217 13.47 84.9392 12.8159V3.4649ZM81.3835 12.17C81.3711 12.3609 81.4038 12.6924 81.2472 12.8946C81.0797 13.1081 80.805 13.0894 80.4735 13.0984H73.7731V3.18168H80.4735C80.8058 3.19064 81.0804 3.1735 81.2472 3.38465C81.403 3.58528 81.3703 3.92422 81.3835 4.11121V12.17Z" fill="white"/>
<path d="M24.5741 7.12421L20.244 0H16.0034L22.6671 10.2658V16.2832H26.4788V10.2658L33.1409 0H28.8992L24.5741 7.12421Z" fill="white"/>
<path d="M110 0H106.194V16.2832H110V0Z" fill="white"/>
</g>
<defs>
<clipPath id="clip0_227_84">
<rect width="110" height="16.2832" fill="white"/>
</clipPath>
</defs>
</svg>
