<svg width="78" height="36" viewBox="0 0 78 36" fill="none" xmlns="http://www.w3.org/2000/svg">
<path d="M65.0271 18.9628C64.9637 22.924 65.7195 25.022 68.6046 25.022C71.485 25.022 71.8983 21.448 71.8983 18.7283C71.8983 16.0068 71.3517 13.3648 68.3256 13.3648C66.4691 13.3648 65.0984 14.9975 65.0271 18.9628ZM59.1904 35.5158V8.70248H65.0984V9.79009C65.0984 11.2409 65.6155 10.6426 66.032 10.0773C66.1018 9.98277 67.4185 8.15863 70.3838 8.15863C73.3403 8.15863 77.9396 10.4895 77.9396 18.7283C77.9396 25.1011 75.1957 29.7634 70.4568 29.7634C67.8456 29.7634 66.336 28.5998 65.9907 28.1302C65.645 27.667 65.1651 27.5862 65.1651 28.1302V35.5157L59.1904 35.5158ZM13.5262 0H19.9127V18.9628C19.9127 22.2246 18.6752 29.0658 9.81859 29.0658C0.960943 29.0658 0 22.6895 0 19.1171V15.6203H6.18032V19.0382C6.18032 21.1363 7.41667 23.0783 9.74994 23.0783C12.0842 23.0783 13.5262 21.6024 13.5262 19.1171V0ZM33.2687 16.0864C33.2687 14.1413 32.3093 12.2765 30.1119 12.2765C27.9833 12.2765 27.2274 13.9846 27.2274 16.0864H33.2687ZM29.496 7.92534C34.5114 7.92534 38.904 10.1006 38.904 20.1264H27.0259C27.0259 23.3129 28.1921 24.6344 30.252 24.6344C32.3124 24.6344 32.9986 22.7678 32.9986 22.7678H38.8369C38.8369 25.6443 35.3344 29.5301 30.0458 29.4529C24.005 29.4529 21.0518 24.4011 21.0518 19.1938C21.0518 13.9846 23.6593 7.92534 29.496 7.92534ZM52.2574 16.0864C52.2574 14.1413 51.2969 12.2765 49.0995 12.2765C46.972 12.2765 46.2144 13.9846 46.2144 16.0864H52.2574ZM48.4847 7.92534C53.4996 7.92534 57.8911 10.1006 57.8911 20.1264H46.0135C46.0135 23.3129 47.1807 24.6344 49.2422 24.6344C51.3006 24.6344 51.9877 22.7678 51.9877 22.7678H57.826C57.826 25.6443 54.323 29.5301 49.0361 29.4529C42.9921 29.4529 40.0389 24.4011 40.0389 19.1938C40.0389 13.9846 42.6496 7.92534 48.4847 7.92534ZM74.029 32.3013C74.029 31.2394 74.7928 30.3767 75.7343 30.3767C76.6726 30.3767 77.4348 31.2394 77.4348 32.3013C77.4348 33.3614 76.6726 34.2295 75.7343 34.2295C74.7929 34.2295 74.029 33.3614 74.029 32.3013ZM73.8324 32.3013C73.8324 33.4895 74.6824 34.4539 75.7343 34.4539C76.7793 34.4539 77.634 33.4895 77.634 32.3013C77.634 31.1131 76.7793 30.1487 75.7343 30.1487C74.6824 30.1487 73.8324 31.1131 73.8324 32.3013Z" fill="white"/>
</svg>
