<svg width="82" height="51" viewBox="0 0 82 51" fill="none" xmlns="http://www.w3.org/2000/svg">
<g clip-path="url(#clip0_12_118)">
<path d="M52.6148 46.8726H55.6659V47.5716H52.6148V46.8726ZM1.86464 42.6327L1.59192 49.6493V49.7712C1.59192 50.3652 1.76868 50.4878 2.72551 50.5548V50.8799C2.02906 50.8268 1.75492 50.8132 1.37318 50.8132C0.990372 50.8132 0.717294 50.8268 0.00708008 50.8799V50.5548C0.962853 50.4878 1.1001 50.3792 1.12726 49.6493L1.4141 43.0119V42.9319C1.4141 42.309 1.22252 42.1742 0.280864 42.1204V41.7817C0.812554 41.8225 1.01754 41.8361 1.40034 41.8361C1.83398 41.84 2.26745 41.8178 2.69834 41.7695L5.2379 48.6088L7.81873 41.7695C8.43439 41.8225 8.72087 41.8361 9.13085 41.8361C9.47096 41.8361 9.69041 41.8225 10.209 41.7817V42.1204C9.28079 42.1742 9.07475 42.309 9.07475 42.9172V43.0119L9.2254 49.6493C9.24022 50.3792 9.36229 50.4867 10.3459 50.5548V50.8799C9.48577 50.7989 9.15731 50.771 8.63867 50.771C8.11897 50.771 7.79121 50.7975 6.93105 50.8799V50.5548C7.8593 50.5014 8.06429 50.3519 8.06429 49.7178V49.6511L7.94257 42.648L5.68809 48.6765L5.52473 49.1231L5.33351 49.6225L5.15499 50.1379L5.00504 50.5834H4.80006L4.65046 50.1511L4.45853 49.6225L4.26766 49.0959L4.1036 48.6231L1.86464 42.6327ZM12.1199 46.999C12.2568 45.4447 12.7751 44.6482 13.6493 44.6482C14.5374 44.6482 14.9879 45.4049 15.0694 46.999H12.1199ZM13.8959 50.5405C12.653 50.5405 12.1058 49.5942 12.0934 47.4854H16.1635C16.1356 45.4039 15.2751 44.2952 13.6631 44.2952C12.0253 44.2952 11.0004 45.6067 11.0004 47.6886C11.0004 49.7702 12.0257 50.9864 13.7866 50.9864C15.1252 50.9864 15.9998 50.1613 16.1762 48.7694H15.6293C15.4656 49.9182 14.8648 50.5405 13.8959 50.5405ZM16.976 44.7952V44.5525C17.754 44.4851 18.219 44.4041 18.7785 44.2414C18.847 44.7421 18.8741 44.9576 18.9013 45.3637V45.5128C19.2026 44.7421 19.7886 44.2955 20.4996 44.2955C21.1819 44.2955 21.6878 44.7421 21.6878 45.3916C21.6878 45.7838 21.4557 46.0401 21.1142 46.0401C20.8002 46.0401 20.5546 45.8505 20.5546 45.5809C20.5546 45.554 20.5687 45.5009 20.5811 45.4447L20.6082 45.3103V45.1874C20.6082 44.9981 20.4442 44.8633 20.1983 44.8633C19.4891 44.8633 19.0386 45.7146 19.0386 47.0531V49.8777C19.0386 50.4602 19.1744 50.5681 20.0081 50.6082V50.8789C19.2559 50.8122 18.9694 50.7971 18.4913 50.7971C17.9999 50.7971 17.7134 50.8122 16.9626 50.8789V50.6082C17.7949 50.5681 17.9452 50.4602 17.9452 49.8777V45.459C17.9321 44.8773 17.863 44.8106 17.1538 44.7963L16.976 44.7952ZM26.9127 44.1747V46.4057H26.6114C26.3654 45.2286 25.8606 44.6611 25.0279 44.6611C24.0027 44.6611 23.4025 45.7569 23.4025 47.6897C23.4025 49.5816 23.9349 50.5415 24.9863 50.5415C25.833 50.5415 26.3383 49.9472 26.5023 48.7582H27.0619C26.8841 50.2049 26.1058 50.9885 24.8773 50.9885C23.2928 50.9885 22.2146 49.6633 22.2146 47.6907C22.2146 45.6755 23.3066 44.2973 24.9182 44.2973C25.5056 44.2973 25.8743 44.4464 26.3122 44.8654L26.6798 44.1757H26.913L26.9127 44.1747ZM29.1551 46.999C29.2917 45.4447 29.81 44.6482 30.6846 44.6482C31.5723 44.6482 32.0228 45.4049 32.104 46.999H29.1551ZM30.9305 50.5405C29.6875 50.5405 29.1417 49.5942 29.128 47.4854H33.1973C33.1702 45.4039 32.3089 44.2952 30.6987 44.2952C29.0588 44.2952 28.0343 45.6067 28.0343 47.6886C28.0343 49.7702 29.0585 50.9864 30.8215 50.9864C32.1597 50.9864 33.034 50.1613 33.2107 48.7694H32.6646C32.5009 49.9182 31.9 50.5405 30.9305 50.5405ZM36.9795 50.6225C35.9962 50.6225 35.4776 49.6078 35.4776 47.6761C35.4776 45.7171 35.9553 44.7568 36.9389 44.7568C37.9501 44.7568 38.4691 45.7838 38.4691 47.7721C38.4687 49.649 37.9631 50.6225 36.9795 50.6225ZM39.5469 49.4727V41.6689C38.8642 41.8498 38.2503 41.957 37.4858 42.038V42.2684C38.3459 42.2684 38.4553 42.3631 38.4553 43.0657V45.4307C37.9501 44.6203 37.5539 44.3762 36.8161 44.3762C35.3551 44.3762 34.3302 45.7412 34.3302 47.6876C34.3302 49.6343 35.3675 50.9983 36.8571 50.9983C37.6354 50.9983 38.1681 50.647 38.5502 49.8906C38.6046 50.4043 38.6046 50.4581 38.7418 50.971C39.301 50.795 39.5339 50.7413 40.3397 50.647L40.5443 50.6205V50.3907C39.6291 50.3638 39.5469 50.2971 39.5469 49.4727ZM42.1821 46.999C42.3186 45.4447 42.8373 44.6482 43.7119 44.6482C44.5996 44.6482 45.0494 45.4049 45.1313 46.999H42.1821ZM43.9578 50.5405C42.7141 50.5405 42.169 49.5942 42.1546 47.4854H46.2243C46.1968 45.4039 45.3366 44.2952 43.7257 44.2952C42.0858 44.2952 41.0619 45.6067 41.0619 47.6886C41.0619 49.7702 42.0858 50.9864 43.8484 50.9864C45.1866 50.9864 46.0606 50.1613 46.2373 48.7694H45.6908C45.5282 49.9182 44.9263 50.5405 43.9578 50.5405ZM47.384 51.0004V48.7421L47.6846 48.7292C47.9298 49.9598 48.5038 50.5548 49.4603 50.5548C50.265 50.5548 50.8666 50.0272 50.8666 49.3393C50.8666 48.8797 50.6076 48.5693 49.9373 48.2711L49.4186 48.0406L48.7906 47.7571C47.7925 47.2979 47.4789 46.919 47.4789 46.1347C47.4789 45.0665 48.3249 44.3378 49.5277 44.3378C50.0604 44.3378 50.4573 44.4593 50.9209 44.7687L51.1524 44.2149H51.3983V46.31H51.0836C50.9597 45.2282 50.5099 44.7156 49.6501 44.7156C48.9265 44.7156 48.3651 45.2024 48.3651 45.8376C48.3651 46.3778 48.5701 46.5544 49.8131 47.0946L50.3871 47.3387C51.424 47.7833 51.7941 48.217 51.7941 49.0149C51.7941 50.1504 50.8786 50.9602 49.5961 50.9602C48.9674 50.9602 48.4756 50.7978 47.9569 50.3928L47.6278 51.0004H47.384ZM59.3895 46.3365C60.1128 46.3365 60.5224 46.4588 60.8371 46.7688C61.1515 47.081 61.3296 47.6617 61.3296 48.3095C61.3296 49.6612 60.6459 50.419 59.4308 50.419H58.9393C58.215 50.419 58.0926 50.31 58.0926 49.7153V46.3355L59.3895 46.3365ZM58.0915 42.2405H59.2526C60.4 42.2405 60.9049 42.7957 60.9049 44.0521C60.9049 44.6737 60.7549 45.1207 60.4547 45.4709C60.1541 45.81 59.7857 45.9168 59.0215 45.9168H58.0926V42.2402H58.0915V42.2405ZM62.1199 44.0249C62.1199 43.322 61.8201 42.7011 61.3007 42.3079C60.8371 41.9702 60.3051 41.8222 59.416 41.8222H55.8243V42.1599C56.8083 42.2143 56.9442 42.3222 56.9442 43.052V49.6074C56.9442 50.3376 56.8341 50.4312 55.8243 50.5136V50.8387H59.2794C60.2895 50.8387 60.8368 50.7161 61.4108 50.3648C62.0931 49.9325 62.5437 49.1077 62.5437 48.2578C62.5437 47.5263 62.2293 46.8645 61.6969 46.4605C61.4108 46.2444 61.1098 46.1211 60.6177 46.0275C61.602 45.6609 62.1199 44.9712 62.1199 44.0249ZM64.7731 46.999C64.9103 45.4447 65.429 44.6482 66.3036 44.6482C67.1906 44.6482 67.6418 45.4049 67.723 46.999H64.7731ZM66.5495 50.5405C65.3066 50.5405 64.7593 49.5942 64.7463 47.4854H68.8167C68.7892 45.4039 67.9283 44.2952 66.3167 44.2952C64.6778 44.2952 63.6533 45.6067 63.6533 47.6886C63.6533 49.7702 64.6778 50.9864 66.4391 50.9864C67.7773 50.9864 68.6516 50.1613 68.829 48.7694H68.2825C68.1199 49.9182 67.5191 50.5405 66.5495 50.5405ZM69.5389 44.849V44.6203C70.3313 44.5113 70.7956 44.4041 71.3411 44.2145C71.4102 44.5267 71.4515 44.8769 71.478 45.3906C71.9702 44.6601 72.5294 44.3367 73.3221 44.3367C74.1421 44.3367 74.8512 44.754 75.1254 45.4171C75.2626 45.7422 75.3307 46.12 75.3307 46.633V49.8774C75.3307 50.4591 75.4672 50.567 76.2995 50.6072V50.8778C75.5759 50.8097 75.3032 50.7968 74.8114 50.7968C74.3051 50.7968 74.0327 50.8097 73.3218 50.8778V50.6072C74.0592 50.5813 74.237 50.4455 74.237 49.905V46.5929C74.237 45.4171 73.882 44.9433 73.0085 44.9433C72.0788 44.9433 71.5877 45.5254 71.5877 46.633V49.905C71.5877 50.4455 71.7662 50.5813 72.4768 50.6072V50.8778C71.7662 50.8097 71.4935 50.7968 71.0013 50.7968C70.5233 50.7968 70.2357 50.8097 69.5259 50.8778V50.6072C70.3581 50.567 70.4954 50.4591 70.4954 49.8774V45.4988C70.4816 44.9433 70.3998 44.8633 69.7174 44.8633C69.6751 44.8633 69.6077 44.849 69.5389 44.849ZM76.8302 50.8387L80.5312 44.8095H78.8511C77.9641 44.8095 77.7443 44.9981 77.2532 46.215H76.9812L77.2955 44.4579H81.9936L78.2785 50.4867H79.8756C80.8053 50.4867 81.1871 50.1225 81.597 48.8916H81.8839L81.5293 50.8387H76.8302Z" fill="white"/>
<path d="M57.7084 29.2006C59.5279 26.2059 60.4869 22.7765 60.4819 19.2821C60.4819 8.63275 51.7589 0 40.9995 0C30.2397 0 21.5175 8.6331 21.5175 19.2821C21.5125 22.7766 22.4717 26.2061 24.2916 29.2006L24.2207 29.2568L24.3054 29.2243C27.7154 34.8205 33.9154 38.5642 40.9995 38.5642C48.084 38.5642 54.2833 34.8205 57.6929 29.2243L57.7776 29.2568L57.7084 29.2006ZM58.0884 19.2821C58.0917 22.235 57.3095 25.1367 55.8205 27.6956L43.7684 18.0882L41.2966 2.37731C50.5964 2.53444 58.0884 10.04 58.0884 19.2821ZM23.9127 19.2821C23.9127 10.0403 31.404 2.53479 40.7038 2.37731L38.232 18.0882L26.1799 27.6956C24.6913 25.1366 23.9094 22.2349 23.9127 19.2821ZM41.0002 36.1942C34.9367 36.1942 29.6146 33.0654 26.5818 28.3531L41.0002 22.8323L55.4186 28.3534C52.3855 33.0654 47.0644 36.1942 41.0002 36.1942Z" fill="white"/>
</g>
<defs>
<clipPath id="clip0_12_118">
<rect width="82" height="51" fill="white"/>
</clipPath>
</defs>
</svg>
