<svg width="72" height="72" viewBox="0 0 72 72" fill="none" xmlns="http://www.w3.org/2000/svg">
<path fill-rule="evenodd" clip-rule="evenodd" d="M44.4828 17.2525L36 2.6554L27.6333 17.2525L36 31.9659L44.4828 17.2525Z" fill="white"/>
<path d="M36 2.6554L27.6333 17.2525L36 31.9659L44.4828 17.2525L36 2.6554Z" stroke="white" stroke-width="2" stroke-miterlimit="2.613" stroke-linecap="round" stroke-linejoin="round"/>
<path fill-rule="evenodd" clip-rule="evenodd" d="M10.551 46.5634H27.5171L35.9999 31.9659H19.3831L10.551 46.5634Z" fill="white"/>
<path d="M27.5171 46.5634L35.9999 31.9659H19.3831L10.551 46.5634H27.5171Z" stroke="white" stroke-width="2" stroke-miterlimit="2.613" stroke-linecap="round" stroke-linejoin="round"/>
<path fill-rule="evenodd" clip-rule="evenodd" d="M52.8492 31.9659H36L44.5986 46.5634H61.4493L52.8492 31.9659Z" fill="white"/>
<path d="M36 31.9659L44.5986 46.5634H61.4493L52.8492 31.9659H36Z" stroke="white" stroke-width="2" stroke-miterlimit="2.613" stroke-linecap="round" stroke-linejoin="round"/>
<path fill-rule="evenodd" clip-rule="evenodd" d="M20.4284 50.0391H18.802L17.64 53.0505L16.361 49.9237H14.8508V56.9901H16.129V52.4715L17.64 55.8318L19.0344 52.4715V56.9901H20.4284V50.0391ZM22.7521 56.9901V50.0391H21.3585V56.9901H22.7521ZM23.2179 51.0824H24.6123V56.9901H26.0063V51.0824H27.2849V50.0391H23.2179V51.0824ZM44.2502 50.0391H42.9727V56.9901H44.2502V50.0391ZM55.0575 49.9237H53.6635V52.7035H51.1063V50.0391H49.8289V56.9901H51.1063V53.8618H53.6635V56.9901H55.0575V49.9237ZM57.2654 50.0391H55.9872V56.9901H57.2654V50.0391ZM31.3519 50.8489C31.0037 50.2696 30.4225 49.9237 29.609 49.9237C28.7954 49.8072 28.2142 50.1542 27.7495 50.7335C27.1683 51.5448 27.2849 52.2407 27.8657 53.0505L28.5623 53.5144C29.1436 53.7449 29.3763 53.9784 29.8413 54.2088C30.1898 54.325 30.4225 54.5577 30.4225 54.7882C30.5383 55.3675 30.4225 55.716 29.8413 55.8314C29.3763 55.9469 28.9116 55.8314 28.6793 55.4826C28.5623 55.2521 28.4465 55.0201 28.4465 54.6727H27.1683C27.1683 55.0201 27.1683 55.3671 27.4003 55.8314C27.633 56.4108 28.0984 56.8747 28.795 57.1052C29.3763 57.2206 30.1894 57.1052 30.8868 56.6413C31.5846 56.1788 31.8165 55.4826 31.7004 54.6727C31.5846 54.0934 31.1195 53.6295 30.5383 53.2821C30.3056 53.1656 29.8413 52.9347 29.3763 52.5862C28.795 52.3557 28.6793 52.1238 28.6793 51.7764C28.5623 51.3125 28.795 51.082 29.3763 51.082C29.9571 50.9655 30.3056 51.3125 30.4225 52.1238H31.5846C31.5846 51.6617 31.5846 51.1974 31.3519 50.8489ZM36.814 54.6731V49.9237H35.535V54.7882C35.535 55.4826 35.1865 55.9469 34.4899 55.9469C33.7921 55.9469 33.5598 55.4829 33.5598 54.7882V49.9237H32.2819V54.6731C32.1662 56.2957 32.8628 57.1055 34.4899 57.1055C36.0001 57.2206 36.814 56.4108 36.814 54.6731ZM39.9509 50.0391L37.7433 49.9237V56.9901H40.5317C41.2291 56.9901 41.6938 56.7582 41.9257 56.1788C42.5073 55.4829 42.5073 54.7882 42.043 53.9784C41.9257 53.7449 41.6934 53.5144 41.2287 53.2825C41.8103 52.9351 42.043 52.5866 42.1581 52.2407C42.3908 51.6614 42.2746 51.1974 41.8099 50.7335C41.4618 50.1542 40.7637 49.9237 39.9509 50.0391ZM39.0208 51.0824H39.9509C40.4155 51.0824 40.7637 51.3129 40.7637 51.8922C40.881 52.3561 40.6475 52.5866 40.1828 52.7035L39.4862 52.82V53.8618H40.0678C40.7637 53.9784 40.9964 54.325 40.9964 54.9036C40.9964 55.5995 40.7637 55.8314 40.0678 55.8314H39.0208V51.0824ZM21.2419 60.0019V67.0683H22.5205V62.5509L24.0311 65.7946L25.4254 62.5509V67.0683H26.8195V60.0019H25.1935L24.0311 63.1302L22.7521 60.0019H21.2419ZM36.3486 61.0452V60.0019H32.1658V61.0452H33.5594V66.9529H34.9538V61.0452H36.3486ZM43.2047 61.1602H43.9013C44.7149 61.1602 45.0634 61.5091 45.0634 62.2035C45.0634 63.0133 44.5987 63.3622 43.6686 63.3622L45.4122 66.9529H46.9232L45.2964 64.0566C45.2964 64.0566 45.2964 63.9411 45.4126 63.9411H45.5292C46.2258 63.5923 46.5739 62.8979 46.4585 61.9715C46.342 60.5809 45.5292 59.8865 43.7863 60.0019H41.9261V66.9529H43.2051L43.2047 61.1602Z" fill="white"/>
<path fill-rule="evenodd" clip-rule="evenodd" d="M27.7495 61.2756C27.0522 62.4343 26.9364 63.7095 27.2849 64.9847C27.7495 66.3739 28.5623 67.0683 29.8413 67.0683C31.0034 67.0683 31.9327 66.4889 32.2816 65.0998C32.8624 63.826 32.8624 62.5508 32.1658 61.3921C31.5846 60.3496 30.8868 59.8864 29.9571 59.8864C29.0278 59.8864 28.2142 60.3496 27.7495 61.2756ZM28.6793 64.8678C28.3304 64.0565 28.3304 63.2467 28.6793 62.2034C28.7951 61.509 29.2601 61.1602 29.9571 61.1602C30.5383 61.1602 31.0034 61.509 31.1192 62.3188C31.4673 63.4775 31.3515 64.4054 31.0034 65.2152C30.7707 65.6791 30.4221 66.0265 29.8413 66.0265C29.2605 66.0265 28.9116 65.6791 28.6793 64.8678ZM36.0001 65.0998C36.4651 66.4889 37.2779 67.1848 38.5569 67.0683C39.7189 67.1848 40.6479 66.4889 41.1133 65.2152C41.578 63.9415 41.578 62.6677 40.8813 61.3925C40.2998 60.35 39.6024 59.8868 38.7888 60.0018C37.7433 60.0018 37.0459 60.35 36.4651 61.2756C35.7674 62.5508 35.6516 63.826 36.0001 65.0998ZM37.3944 62.2034C37.6264 61.6241 37.9753 61.2756 38.6727 61.2756C39.2535 61.1602 39.7189 61.6245 39.9509 62.4343C40.1828 63.4775 40.1828 64.4054 39.8343 65.2152C39.4862 65.7945 39.1385 66.0265 38.5569 66.0265C38.0922 66.0265 37.6268 65.6791 37.3948 64.9847C37.0459 64.1719 37.0459 63.2467 37.3944 62.2034ZM49.0149 50.9654C48.6668 50.2695 48.0856 49.9237 47.2721 50.0391C46.4585 49.9237 45.8773 50.1545 45.4123 50.8489C44.8307 51.5448 44.9483 52.3561 45.5288 53.0508C45.645 53.2828 45.8769 53.3997 46.2254 53.6302L47.5036 54.2095C47.8533 54.4415 48.0852 54.6735 48.0852 54.9039C48.2014 55.3678 48.0852 55.7167 47.5036 55.9472C47.039 56.0626 46.6901 55.9472 46.3416 55.4833C46.2254 55.3678 46.1096 55.0208 46.1096 54.7889H44.8307C44.8307 55.1378 44.948 55.4833 45.0634 55.8321C45.2961 56.5265 45.7608 56.9908 46.4581 57.1059C47.039 57.3378 47.8529 57.2213 48.5499 56.7585C49.2473 56.2961 49.4785 55.5998 49.3634 54.7889C49.2473 54.2095 48.7819 53.7456 48.2014 53.3997L47.0393 52.7038C46.4585 52.4719 46.342 52.1245 46.342 51.8925C46.342 51.4286 46.4585 51.1981 47.0393 51.0827C47.6209 50.9662 47.9687 51.3132 48.0856 52.2414H49.2476C49.2476 51.6617 49.2476 51.3128 49.0149 50.9654ZM47.1551 60.8132C46.6905 61.6245 46.6905 62.3188 47.3878 63.1302L47.9687 63.5926L49.2476 64.2885C49.5965 64.405 49.8292 64.6359 49.8292 64.8678C49.9447 65.4472 49.8292 65.7942 49.2476 66.0265C48.7822 66.0265 48.4341 66.0265 48.2014 65.5641C47.9687 65.3306 47.8533 65.1002 47.8533 64.7513H46.5736C46.5736 65.1002 46.6901 65.4472 46.8063 65.91C47.039 66.4893 47.5036 66.9532 48.201 67.1852C48.7819 67.3017 49.5958 67.1852 50.2928 66.7228C50.9902 66.2588 51.339 65.5641 51.1063 64.7516C50.9902 64.1723 50.6409 63.8264 49.9443 63.3625L48.7822 62.6681C48.2014 62.4346 48.0856 62.2042 48.0856 61.8553C48.0856 61.3929 48.2018 61.1609 48.7822 61.1609C49.3638 61.0455 49.8292 61.3929 49.8292 62.2042H50.9905C51.1067 61.7403 50.9905 61.2763 50.7578 60.9304C50.4097 60.3504 49.8292 60.0026 49.0149 60.0026C48.2014 59.8864 47.6206 60.2338 47.1551 60.8132Z" fill="white"/>
</svg>
