<svg width="111" height="18" viewBox="0 0 111 18" fill="none" xmlns="http://www.w3.org/2000/svg">
<path d="M76.7648 10.4577C77.9593 7.32846 79.091 4.27031 79.091 4.19919C79.1538 4.05695 79.2796 3.91471 79.4682 3.91471H80.3484C80.537 3.91471 80.6627 4.05695 80.7256 4.19919C81.0399 5.05262 81.983 7.75517 82.9889 10.4577H76.7648ZM84.6236 2.77679C83.4919 -0.210237 83.932 0.145361 81.3543 0.00312186H78.3365C75.9474 0.0742416 76.3247 -0.139118 75.5073 1.78112C75.5073 1.78112 71.4208 12.378 69.6604 16.7163L69.5975 16.9296C69.2832 17.6408 69.5347 17.7119 70.0376 17.7119H73.747C73.9985 17.7119 74.1242 17.5697 74.1871 17.4275C74.1871 17.4275 74.69 16.0762 75.3816 14.2271H84.3721C84.7493 15.2939 85.1894 16.3607 85.5666 17.4275C85.6295 17.6408 85.8181 17.7831 86.0067 17.7831H89.8418C90.4076 17.7831 90.5334 17.8542 90.3448 17.2852C89.6532 15.4361 85.2523 4.48367 84.6236 2.77679ZM26.9714 0.00312186H23.1992C22.8848 0.00312186 22.822 0.145361 22.822 0.42984V17.143C22.822 17.5697 22.8848 17.7119 23.3249 17.7119H26.9085C27.2858 17.7119 27.4115 17.6408 27.4115 17.143V0.50096C27.3486 0.145361 27.2858 0.00312186 26.9714 0.00312186ZM18.5468 0.00312186H15.4661C15.0889 0.00312186 14.9632 0.145361 14.9632 0.57208V13.8004C14.9632 13.8004 8.80186 2.91903 7.98454 1.49664C7.04148 -0.0679981 6.72713 0.00312186 4.02371 0.00312186H0.502963C0.0628704 0.00312186 0 0.145361 0 0.57208V17.2141C0 17.6408 0.125741 17.7831 0.502963 17.7831H3.58361C4.02371 17.7831 4.08658 17.7119 4.08658 17.2141V4.12807C4.08658 4.12807 9.17908 13.1603 10.8766 16.2184C11.7568 17.7831 11.8825 17.7831 14.3973 17.7831H18.5468C18.924 17.7831 19.0497 17.7119 19.0497 17.2141V0.57208C19.0497 0.145361 18.924 0.00312186 18.5468 0.00312186ZM110.463 0.00312186H107.383C107.005 0.00312186 106.88 0.145361 106.88 0.57208V13.8004C106.88 13.8004 100.718 2.91903 99.9011 1.49664C98.958 -0.139118 98.6437 0.00312186 95.9402 0.00312186H92.4195C91.9794 0.00312186 91.9165 0.145361 91.9165 0.57208V17.2141C91.9165 17.6408 91.9794 17.7831 92.4195 17.7831H95.5001C95.9402 17.7831 96.0031 17.7119 96.0031 17.2141V4.12807C96.0031 4.12807 101.096 13.1603 102.793 16.2184C103.673 17.7831 103.799 17.7831 106.314 17.7831H110.463C110.841 17.7831 110.966 17.7119 110.966 17.2141V0.57208C110.966 0.145361 110.903 0.00312186 110.463 0.00312186ZM43.0662 6.83062C41.5573 6.68838 37.5336 6.26166 36.2133 6.11942C35.7104 6.0483 35.5846 5.76382 35.5218 5.40822V4.9815V4.62591C35.5846 4.12807 35.7733 3.91471 36.2762 3.91471H47.2785C47.6558 3.91471 47.7815 3.84359 47.7815 3.34575V0.50096C47.7815 0.0742416 47.6558 0.00312186 47.2785 0.00312186H36.1505C33.2584 0.00312186 31.6238 1.21216 31.1837 3.70135C31.058 4.27031 31.058 4.91038 31.058 5.40822C31.058 5.97718 31.1208 6.61726 31.1208 7.04398C31.3095 8.46637 32.0639 10.1021 35.396 10.5288C38.0366 10.8133 41.8717 11.1689 43.1291 11.3112C43.6949 11.3823 43.8207 11.8801 43.8207 12.1646V13.3025C43.8207 13.7292 43.6321 13.8715 43.192 13.8715H31.6238C31.2466 13.8715 31.1208 13.9426 31.1208 14.4404V17.2852C31.1208 17.7119 31.2466 17.8542 31.6238 17.8542H43.1291C45.9583 17.8542 47.8444 17.2852 48.3473 14.5115C48.4731 13.9426 48.4731 13.1603 48.4731 12.5913C48.4731 11.7379 48.4102 11.0267 48.3473 10.7422C47.8444 7.68405 45.8954 7.1151 43.0662 6.83062ZM63.2476 6.83062C61.7387 6.68838 57.715 6.26166 56.3947 6.11942C55.8918 6.0483 55.766 5.76382 55.7032 5.40822V4.9815V4.62591C55.766 4.12807 55.9547 3.91471 56.4576 3.91471H67.4599C67.8372 3.91471 67.9629 3.84359 67.9629 3.34575V0.50096C67.9629 0.0742416 67.8372 0.00312186 67.4599 0.00312186H56.3319C53.4398 0.00312186 51.8052 1.21216 51.3651 3.70135C51.2394 4.27031 51.2394 4.91038 51.2394 5.40822C51.2394 5.97718 51.3022 6.61726 51.3022 7.04398C51.4909 8.46637 52.2453 10.1021 55.5774 10.5288C58.218 10.8133 62.0531 11.1689 63.3105 11.3112C63.8763 11.3823 64.0021 11.8801 64.0021 12.1646V13.3025C64.0021 13.7292 63.8135 13.8715 63.3734 13.8715H51.8052C51.3651 13.8715 51.3022 13.9426 51.3022 14.4404V17.2852C51.3022 17.7119 51.428 17.8542 51.8052 17.8542H63.3105C66.1397 17.8542 68.0258 17.2852 68.5287 14.5115C68.6545 13.9426 68.6545 13.1603 68.6545 12.5913C68.6545 11.7379 68.5916 11.0267 68.5287 10.7422C67.9629 7.68405 66.0139 7.1151 63.2476 6.83062Z" fill="white"/>
</svg>
