<svg width="77" height="55" viewBox="0 0 77 55" fill="none" xmlns="http://www.w3.org/2000/svg">
<mask id="mask0_227_276" style="mask-type:luminance" maskUnits="userSpaceOnUse" x="0" y="0" width="77" height="55">
<path d="M0 54.3137H77V2.57415e-05H0V54.3137Z" fill="white"/>
</mask>
<g mask="url(#mask0_227_276)">
<path d="M54.4657 35.7293C53.7522 33.6014 50.8759 28.2599 48.6148 25.2542C48.1259 24.5991 48.3086 24.2627 48.5701 24.0508C48.8306 23.8389 49.6724 23.1118 50.6678 21.9725C51.6739 20.8225 51.916 19.5219 51.2044 17.6409C50.4968 15.7775 48.1589 11.3487 47.668 9.88088C47.1052 8.18947 47.0488 7.4361 47.3881 6.51458C47.7876 5.42877 48.3708 5.38309 48.8102 5.38989C49.0464 5.39475 49.2233 5.6436 49.2243 5.75733C49.236 6.23559 49.2603 6.82662 49.7269 8.0631C50.4725 10.0315 52.3845 11.3176 52.9882 11.5771C53.4081 11.7589 53.4839 11.4333 53.447 11.2758C53.4081 11.1203 52.786 8.68036 52.3184 6.84703C51.8304 4.92524 51.5845 4.50822 51.15 4.10092C50.4579 3.4438 49.4051 3.0919 48.5147 3.12593C46.5287 3.20369 45.651 5.12257 45.5421 5.30046C45.4478 5.45988 45.4109 5.57167 45.2087 5.43169C44.641 5.03508 42.9826 3.64987 42.83 2.78278C42.7406 2.26953 42.6511 2.19857 42.1389 1.99929C40.1461 1.22163 38.4197 0.538265 36.5086 0.200955C35.7426 0.0658364 35.7018 -0.000263998 34.8075 0.165961C33.2891 0.449807 32.3578 0.799752 31.2176 1.39758C30.5887 1.731 30.5158 1.95458 30.3933 2.11205C30.299 2.23648 30.1969 2.3852 29.9695 2.45908C29.5903 2.58254 28.1818 3.10746 27.6987 3.38839C27.3973 3.56336 27.2331 3.74806 27.3876 4.08828C27.6579 4.68902 28.4686 5.94106 28.8224 6.25601C29.0372 6.44556 29.5758 6.57679 29.7041 6.60401C29.8314 6.63512 29.9218 6.67206 29.9695 6.57679C30.0219 6.47181 30.0414 6.31919 30.2941 6.14227C30.6723 5.8769 31.3751 5.69318 31.7493 5.66013C32.0361 5.63582 32.2111 5.62708 32.3588 5.73303C32.5056 5.84093 32.8449 6.20254 32.9625 6.5661C33.0801 6.92966 33.0062 7.06575 32.8031 7.15129C32.5989 7.23683 31.9885 7.37486 31.2808 7.43222C30.576 7.48957 30.3748 7.29418 30.3252 7.25044C30.2883 7.21058 30.195 7.15032 30.123 7.24558C30.0044 7.41083 29.8266 7.51776 29.5505 7.65482C29.394 7.73065 29.3104 7.89687 29.4591 8.15641C29.9082 8.9331 30.5002 9.80603 31.0494 9.97225C31.4869 10.1083 31.7211 9.96545 32.213 9.61453C32.6524 9.29666 32.9382 9.2986 33.0587 9.38706C33.1909 9.48621 33.4563 9.71076 33.3882 9.93531C33.2716 10.3251 32.4852 11.2554 32.3345 11.4469C32.1926 11.6277 32.0584 11.7249 31.8047 11.6034C31.4324 11.4255 25.7895 8.49761 25.0352 8.20405C24.2138 7.88812 23.6743 7.81133 22.8655 7.77439C22.2113 7.74523 21.3384 7.80841 20.7921 7.90756C20.3935 7.98144 20.1671 8.17002 19.7957 8.51317C19.2844 8.9856 18.7449 9.58925 18.6944 10.0928C18.6574 10.4554 19.0608 11.1941 19.1046 11.2457C19.1483 11.3011 19.2232 11.4031 19.4419 11.3788C19.6645 11.3545 20.2225 11.0639 20.8893 11.1796C21.493 11.2846 21.5542 11.7589 21.5853 12.1225C21.5902 12.1847 21.666 12.3256 21.8371 12.3227C22.0772 12.3198 22.4534 12.3276 22.8879 12.5356C23.4235 12.7893 24.4831 13.6107 24.6464 13.7925C24.7786 13.9412 24.7698 14.0754 24.5181 14.0997C23.1717 14.2192 21.1236 14.6188 20.1768 14.9298C19.5041 15.1495 18.7109 15.4518 18.4309 15.9388C18.1131 16.491 17.7106 17.3765 17.5969 18.0094C17.4812 18.6383 18.1549 19.4189 18.3347 19.5929C18.4562 19.7105 18.5388 19.7844 18.7537 19.6667C19.0822 19.4782 19.8783 18.9873 20.6405 18.9416C21.1032 18.9153 21.2879 19.3508 21.3987 19.5102C21.5105 19.6677 21.6174 19.5588 22.0315 19.4471C22.7654 19.2497 26.8598 19.3246 28.3053 19.3926C28.9663 19.4208 29.8859 19.519 30.5624 19.8923C31.2351 20.2626 32.4531 21.4126 32.4531 21.4126C32.4531 21.4126 30.8356 24.1247 29.9646 25.7325C29.1578 27.2178 28.5697 28.3338 28.279 28.9802C28.0117 29.5712 27.794 30.4091 27.8416 31.0692C27.9145 32.0354 27.9398 32.5312 27.9281 32.9686C27.9155 33.3536 27.5568 33.3954 27.0484 33.5208C26.3465 33.6996 24.9477 33.8279 23.8143 34.1069C22.7839 34.3635 22.3999 34.6066 22.2133 35.4027C22.0694 36.0229 21.8565 37.5636 21.8312 38.2781C21.8196 38.5658 21.8147 38.7068 22.1802 38.631C22.3902 38.5901 22.9968 38.5026 23.7686 38.4463C24.7251 38.3734 25.7604 38.3879 26.5604 38.386C28.0331 38.3772 32.3802 38.631 32.6728 38.6601C33.0441 38.6971 33.119 38.6514 33.0947 38.3918C33.0587 38.0497 32.9965 36.957 32.9809 36.3057C32.9625 35.6515 32.8643 34.9896 33.4534 34.3538C34.0395 33.7161 38.4702 28.7761 38.7152 28.5223C38.93 28.3075 39.0739 28.0781 39.4025 28.3795C39.7359 28.6857 43.3831 31.3151 44.1248 31.8527C44.8655 32.3902 45.5547 32.573 46.3985 32.5846C47.0002 32.5953 47.1684 33.6452 46.6561 33.7443C46.1302 33.8445 45.3302 34.0097 44.7703 34.1371C43.9071 34.3392 43.6427 34.6202 43.3831 35.2024C43.1605 35.6933 42.9165 38.107 42.9087 38.316C42.9019 38.4657 42.8932 38.6834 43.1304 38.6339C44.1948 38.4181 45.8823 38.3568 47.6875 38.4132C49.7589 38.4774 51.7711 38.6484 52.053 38.665C52.3583 38.6864 52.3874 38.6407 52.541 38.4025C52.8025 37.9933 53.5821 37.0922 54.2606 36.5361C54.5999 36.2601 54.6067 36.1454 54.4657 35.7293ZM46.5074 21.1356C45.9815 21.3076 45.6393 21.1589 45.3836 20.9149C45.126 20.6699 43.0361 18.1542 42.3634 17.3853C42.0251 16.9974 41.7714 16.1119 42.7911 15.7347C43.6271 15.4304 45.126 14.9493 45.5421 14.7296C45.9591 14.5099 46.1778 14.2844 46.2177 13.8576C46.2507 13.4289 46.2546 12.9478 46.2566 12.7874C46.2595 12.626 46.4685 12.4967 46.5754 12.6863C46.6493 12.8204 47.0245 13.5524 47.4823 14.3991C48.1667 15.6706 49.0299 17.2599 49.3108 17.9433C49.5762 18.5955 49.4459 19.0932 49.0416 19.5948C48.4933 20.2733 46.8923 21.0102 46.5074 21.1356Z" fill="white"/>
</g>
<path d="M48.6445 3.51798C47.0134 3.5102 45.3609 5.40089 45.6758 8.2199C45.8712 9.94631 46.1347 10.7327 46.646 11.8487C46.9007 12.3989 49.6847 17.7015 49.814 18.2624C49.987 19.0653 49.8334 19.5669 49.2171 20.1278C48.5357 20.7441 47.4091 21.444 46.6489 21.7055C46.4681 21.7667 46.3028 21.7978 46.1531 21.7978C45.9811 21.7978 45.5504 21.7385 44.7358 20.7354L48.3345 25.5364C47.8747 24.9221 47.6375 24.4584 47.7211 24.0521C47.8037 23.6506 48.4598 23.2132 49.2122 22.6192C49.9685 22.0331 50.8045 21.2914 51.1875 20.2892C51.2993 20.0034 51.3479 19.7079 51.3479 19.3978C51.3479 18.4403 50.8842 17.3564 50.3253 16.1802C49.6059 14.656 47.5665 11.3286 46.9463 8.99659C46.7957 8.42404 46.7267 7.90981 46.7267 7.45196C46.7267 6.12994 47.2895 5.29201 47.9777 5.00622C48.3073 4.87402 48.6037 4.82834 48.8487 4.82834C49.2278 4.82834 49.4912 4.93429 49.5982 4.9897C49.7906 5.09954 49.8198 5.32992 49.8198 5.5117V5.55156C49.8178 5.59238 49.814 5.69056 49.814 5.83637C49.814 6.37976 49.8869 7.57542 50.5197 8.73607C51.3207 10.2088 52.6631 11.0311 53.192 11.2528C53.2376 11.2722 51.9555 6.52363 51.7261 5.62835C51.4597 4.58434 50.7238 3.53839 48.664 3.51798C48.6621 3.51701 48.6592 3.51701 48.6562 3.51701C48.6533 3.51701 48.6494 3.51701 48.6445 3.51798Z" fill="white"/>
<path d="M26.2517 14.0679C26.5657 14.3829 26.0195 14.3654 24.3611 14.5083C22.6707 14.6561 20.9695 14.9973 20.0791 15.3307C19.4288 15.5756 19.0351 15.7496 18.7746 16.3465C18.7746 16.3465 18.2331 17.5227 18.1612 17.9873C18.1252 18.208 18.1378 18.3334 18.2525 18.5181C18.3157 18.6173 18.4713 15.4531 22.554 15.2451C26.1662 15.0604 27.0547 14.6823 26.349 13.9911L26.2517 14.0679Z" fill="white"/>
<path d="M48.8303 4.97218C48.6096 4.97218 48.3442 5.01204 48.0448 5.13646C47.4761 5.36685 46.9531 6.08132 46.9288 7.29739L46.9357 7.57442C46.9357 7.57442 47.0134 6.74719 47.1592 6.35836C47.5218 5.30463 48.1974 5.08591 48.6621 5.08591C48.9702 5.08591 49.1121 5.15979 49.2443 5.29977C49.3464 5.41156 49.4154 5.5146 49.4281 5.67304C49.4397 6.14353 49.4572 6.68401 49.9141 7.90299C49.9423 7.97687 49.9715 8.05074 50.0026 8.1217C49.6157 7.13796 49.568 6.22324 49.568 5.75762C49.5671 5.60792 49.5749 5.43392 49.5749 5.43295C49.5768 5.07717 49.186 4.97218 48.8351 4.97218C48.8331 4.97218 48.8322 4.97218 48.8303 4.97218Z" fill="white"/>
<path d="M26.3937 14.2059C26.5172 14.5393 26.0292 14.4606 24.3709 14.6045C22.6804 14.7522 20.9783 15.0788 20.0879 15.4132C19.4356 15.6592 19.043 15.8312 18.7824 16.43C18.7824 16.43 18.241 17.6062 18.1671 18.0709C18.1331 18.2896 18.1875 18.4179 18.3032 18.6016C18.4762 18.8748 18.587 18.9341 18.8398 18.7883C19.0449 18.6716 19.948 18.1593 20.539 18.1487C21.0795 18.136 21.3157 18.4656 21.3954 18.7465C21.444 18.9215 21.6821 18.831 21.7229 18.8204C21.9601 18.7611 22.1905 18.6901 23.0343 18.6279C24.0374 18.555 27.951 18.589 29.3868 18.6221C30.6787 18.6522 35.7665 22.6435 35.8423 22.6639L36.098 22.1468C34.3696 20.7188 27.9491 15.6271 26.3957 14.1097L26.3937 14.2059Z" fill="white"/>
<path d="M21.2563 8.30247C20.9375 8.34232 20.7197 8.35787 20.3844 8.67088C20.0539 8.97806 19.4793 9.39606 19.2567 9.82085C19.1712 9.98222 19.1284 10.094 19.1508 10.2398C19.1838 10.4478 19.281 10.6656 19.3374 10.7336C19.3977 10.8065 19.4794 10.8406 19.6485 10.7939C19.9907 10.7016 20.5992 10.6218 20.9676 10.6316C21.2301 10.6364 21.6082 10.7025 21.7812 10.9008C22.0135 11.1711 21.998 11.3937 22.0048 11.5103C22.0058 11.5609 22.0243 11.659 22.1361 11.6756C22.3664 11.7076 22.6172 11.7076 22.8845 11.7679C23.635 11.9322 24.646 12.5728 25.5889 13.4399C27.4154 15.1264 29.6861 17.649 31.8636 19.388C32.9659 20.2638 34.772 21.3623 35.3689 21.9601C35.4787 22.0709 35.2406 22.1536 35.0598 22.0612C34.9771 22.0204 33.9506 21.2155 33.727 21.1591C33.5365 21.1125 33.3382 21.1591 33.1429 21.4323C31.4349 23.7915 29.4694 27.7517 28.6684 29.6288C28.4808 30.075 28.3194 30.6349 28.3437 31.1404C28.369 31.6478 28.4224 32.6597 28.4312 33.1351C28.436 33.5997 28.3223 33.7874 27.7692 33.8758C26.7544 34.0323 24.5001 34.4377 23.9256 34.5786C23.493 34.6826 23.1304 34.88 22.9632 35.3816C22.7231 36.1087 22.5297 37.2275 22.5122 37.4997C22.5005 37.6679 22.5599 37.7845 22.7562 37.7359C23.5825 37.5279 24.8607 37.3597 26.6212 37.3947C28.3826 37.4326 31.5214 37.7427 31.9278 37.7797C32.0687 37.7913 32.2378 37.7933 32.2359 37.6309C32.232 37.4433 32.1873 36.5937 32.1737 35.5089C32.163 34.425 33.1068 33.6299 34.4153 32.2738C35.7266 30.9129 38.8888 27.7955 39.0083 27.6866C39.0871 27.6079 39.1716 27.5321 39.0122 27.3765C38.7906 27.1646 37.7816 26.1235 37.6669 26.0039C37.6095 25.9398 37.4802 25.7784 37.5308 25.723C37.5774 25.6657 37.699 25.758 37.8545 25.8863C38.4659 26.3831 45.1509 31.7664 45.6165 31.9754C46.0928 32.1834 46.3825 32.2456 46.8092 32.3205C47.13 32.3788 47.4109 32.8532 47.4566 33.206C47.5033 33.5599 47.4819 34.0284 46.989 34.1499C46.4981 34.2724 45.2841 34.4979 44.8563 34.6156C44.4267 34.7341 44.138 34.9266 43.9552 35.4185C43.7705 35.9142 43.5304 37.2596 43.5256 37.3743C43.5207 37.6718 43.5985 37.6951 43.8269 37.6387C44.1088 37.5726 44.4403 37.4783 45.7176 37.4355C47.8698 37.3588 51.1427 37.6368 51.5646 37.6698C51.7085 37.6834 51.8271 37.5366 51.8776 37.4472C52.3335 36.6598 52.2042 36.4586 52.8166 35.9609C53.1345 35.7062 53.2862 35.6557 53.0869 35.2027C51.0873 30.6514 49.1879 27.5632 46.1083 23.6194C44.1341 21.0901 41.8293 18.2896 41.0545 17.3603L31.7635 12.045C31.2133 11.7835 26.9167 9.58464 26.177 9.21719C25.4353 8.85169 24.8374 8.55132 24.0792 8.38121C23.5484 8.26067 23.0216 8.21887 22.5307 8.21887C22.0641 8.21887 21.6305 8.25678 21.2563 8.30247Z" fill="white"/>
<path d="M31.6138 3.94474C30.2772 4.3044 28.5683 5.00138 28.5061 5.03541C28.4701 5.05874 28.4759 5.09276 28.4944 5.13358C28.5099 5.16955 28.6888 5.47867 28.6888 5.47867C28.6888 5.47867 28.7783 5.68864 29.0368 5.83348C29.2925 5.97832 29.5442 6.03859 29.6084 6.05414C29.6754 6.06775 29.7056 6.03956 29.7289 6.00457C29.7484 5.9754 30.0001 5.49228 30.9256 5.25218C31.4262 5.12581 31.744 5.11123 31.8986 5.11123C32.1397 5.11706 32.5129 5.23565 32.721 5.43882C33.0592 5.77224 33.3557 6.32438 33.4063 6.58878C33.4607 6.84541 33.4179 7.16522 33.1623 7.2984C32.9056 7.42866 32.1591 7.60557 31.6896 7.65223C31.2036 7.70084 30.7311 7.67653 30.4502 7.51517C30.4065 7.49087 30.3744 7.48601 30.3316 7.52003C30.2256 7.60849 30.1615 7.68042 29.9544 7.80387C29.9068 7.83109 29.8776 7.88942 29.9223 7.97885C29.9671 8.06828 30.5532 9.04132 30.909 9.30281C31.2619 9.56722 31.4505 9.44863 31.8733 9.21436C32.2981 8.98009 32.5849 8.69332 33.0243 8.7079C33.4704 8.71957 33.8486 9.09868 33.9176 9.53903C34.0012 10.0746 33.6581 10.4236 33.4491 10.7541C33.2449 11.0778 32.8259 11.56 32.6101 11.8302C32.336 12.1763 31.813 12.0703 31.813 12.0703C31.813 12.0703 34.2879 13.3282 35.712 14.0436C36.2758 14.3294 37.1614 14.064 37.7621 12.9393C37.9021 12.6779 38.7925 10.794 39.0151 10.2331C39.2387 9.67415 39.5547 9.05299 39.0463 7.98468C38.5359 6.92026 36.9553 4.95084 36.3264 4.19553C35.9959 3.80087 35.608 3.55882 34.774 3.51411C34.6661 3.50827 34.5543 3.50536 34.4386 3.50536C33.6765 3.50536 32.755 3.63659 31.6138 3.94474Z" fill="white"/>
<path d="M31.6828 7.72217C31.2065 7.76591 30.7438 7.74453 30.4687 7.5958C30.4259 7.57344 30.3948 7.56955 30.353 7.59969C30.2481 7.68231 30.1858 7.74841 29.9826 7.86214C29.937 7.88645 29.9068 7.94088 29.9525 8.02351C29.9953 8.10614 30.5251 8.99558 30.8848 9.25027C31.2444 9.50981 31.4359 9.39317 31.8665 9.16376C32.2981 8.93435 32.5897 8.65439 33.0359 8.668L33.1254 7.39458C32.8756 7.51609 32.1426 7.6794 31.6828 7.72217Z" fill="white"/>
<path d="M28.5955 5.0801C28.5615 5.10246 28.5664 5.17148 28.5839 5.20745C28.5995 5.2405 28.7695 5.52142 28.7695 5.52142C28.7695 5.52142 28.8541 5.71292 29.0991 5.84415C29.3421 5.97441 29.5443 6.03857 29.6084 6.05413C29.6755 6.06773 29.7057 6.03954 29.729 6.00455C29.7484 5.97538 30.0002 5.49226 30.9256 5.25216C31.4262 5.12579 31.7441 5.11121 31.8986 5.11121L31.5477 4.08859C30.2772 4.41618 28.6539 5.04899 28.5955 5.0801Z" fill="white"/>
<path d="M33.4579 10.8669C33.2547 11.1896 32.8338 11.6727 32.619 11.942C32.3449 12.288 31.9463 12.1374 31.9463 12.1374C31.9463 12.1374 34.288 13.3282 35.7121 14.0436C36.2759 14.3294 37.1284 14.135 37.7291 13.0093C37.8691 12.7488 38.7605 10.864 38.9812 10.304L33.9264 9.61581C34.01 10.1505 33.6659 10.5364 33.4579 10.8669Z" fill="white"/>
<path d="M25.831 17.1348C25.2331 17.1688 23.8246 17.2991 23.4231 17.3895C23.0333 17.4818 22.3869 18.0077 22.3014 18.0991C22.1546 18.2527 22.1575 18.382 22.2664 18.4257C22.3597 18.4617 22.5638 18.4306 22.73 18.4169C23.2229 18.3742 24.5653 18.3324 26.0857 18.3304C26.874 18.3295 27.7324 18.3382 28.4099 18.347C29.1146 18.3567 29.624 18.3654 29.659 18.3625C29.0728 17.7248 28.5751 16.9501 28.3778 16.9404C28.3729 16.9404 28.3681 16.9404 28.3613 16.9404C28.0813 16.9404 25.9962 17.126 25.831 17.1348Z" fill="white"/>
<mask id="mask1_227_276" style="mask-type:luminance" maskUnits="userSpaceOnUse" x="0" y="0" width="77" height="55">
<path d="M0 54.3137H77V2.57415e-05H0V54.3137Z" fill="white"/>
</mask>
<g mask="url(#mask1_227_276)">
<path d="M22.2549 18.4525C22.1956 18.4302 22.1577 18.3767 22.1587 18.3145C22.1587 18.2435 22.1995 18.1638 22.2802 18.0793C22.3716 17.983 23.0122 17.4581 23.4175 17.3609C23.8239 17.2695 25.2285 17.1402 25.8293 17.1062C25.9935 17.0975 28.0748 16.9118 28.3605 16.9108C28.3673 16.9108 28.3732 16.9108 28.379 16.9118C28.4461 16.9167 28.5141 16.9721 28.5997 17.0566C28.6842 17.1422 28.7844 17.2598 28.8952 17.3978C29.1178 17.6729 29.388 18.0258 29.6797 18.3427L29.7214 18.3874L29.6602 18.3923C29.6544 18.3923 29.6447 18.3923 29.6281 18.3923C29.3803 18.3923 27.7627 18.3592 26.3007 18.3592C26.2288 18.3592 26.1578 18.3592 26.0859 18.3592C24.5656 18.3621 23.2241 18.4039 22.7332 18.4457C22.6243 18.4555 22.4989 18.472 22.3969 18.472C22.3424 18.472 22.2938 18.4671 22.2549 18.4525ZM22.3969 18.4127C22.4931 18.4127 22.6175 18.3971 22.7274 18.3874C23.2231 18.3446 24.5646 18.3038 26.0859 18.3009C26.1569 18.3009 26.2288 18.3009 26.3007 18.3009C27.7054 18.3009 29.2539 18.331 29.5922 18.334C29.1693 17.8654 28.797 17.3376 28.5579 17.0984C28.4772 17.0148 28.4082 16.9701 28.3761 16.9701C28.3722 16.9701 28.3673 16.9701 28.3605 16.9701C28.0825 16.9701 25.9984 17.1558 25.8332 17.1645C25.2353 17.1986 23.8258 17.3279 23.4302 17.4183C23.054 17.5038 22.4008 18.0336 22.323 18.1191C22.2481 18.1979 22.217 18.2678 22.217 18.3145C22.218 18.3553 22.2355 18.3796 22.2773 18.3981C22.3026 18.4078 22.3463 18.4137 22.3969 18.4127Z" fill="white"/>
</g>
<path d="M31.3581 1.90045C30.8332 2.21929 30.8108 2.61006 30.4424 2.82392C30.0769 3.03778 29.2351 3.22928 28.3505 3.62491C27.8615 3.84266 27.8596 3.87862 27.9763 4.15372C28.022 4.26843 28.3398 4.84681 28.5012 4.84681C28.6606 4.85167 28.8541 4.76905 29.0494 4.69031C29.3109 4.58727 31.0548 3.91167 32.44 3.61616C33.9827 3.28566 35.6411 3.25747 36.2301 3.88057C37.1264 4.82932 38.6992 6.95524 39.1755 7.87677C39.6451 8.78955 39.5974 9.23281 39.2854 10.1679C38.9986 11.0341 37.9118 13.2815 37.592 13.7471C37.2702 14.2137 36.8814 14.4723 35.9512 14.0922C34.9538 13.682 31.2803 11.7971 30.4813 11.3937C29.9408 11.1215 27.671 9.97159 25.9524 9.11033C25.3196 8.79149 24.7956 8.56014 24.225 8.41627C22.9613 8.09451 21.6043 8.23935 20.9783 8.34239C20.6925 8.39002 20.5146 8.84884 20.5272 9.03547C20.5389 9.18809 20.8334 9.16865 21.1912 9.14921C21.3758 9.13852 21.5771 9.12782 21.7667 9.14143C22.2138 9.17254 23.7448 9.33779 24.6284 9.69649C25.5616 10.0737 30.2334 12.5904 31.4125 13.2241C40.3994 18.1147 44.2449 21.2622 51.1904 32.9339C51.5005 33.4559 51.6502 34.0956 51.1593 34.2414C50.4477 34.4484 47.4858 35.0132 46.5895 35.3068C45.8362 35.5546 45.7361 35.6139 45.6262 35.9862C45.5028 36.412 45.3113 37.2538 45.357 37.4239C45.3764 37.4939 45.3171 37.5843 45.4697 37.5843C46.3028 37.5843 49.2919 37.5873 51.5948 37.805C51.8728 37.8342 51.8883 37.8274 52.0633 37.562C52.2645 37.2529 53.0616 36.3411 53.5855 35.9532C53.8052 35.7899 53.6575 35.4856 53.6215 35.3865C52.9634 33.7291 51.1038 30.1334 48.558 26.3938C46.0588 22.7145 41.8225 17.7326 41.2373 16.9054C40.6647 16.0937 40.4402 15.1809 41.6339 14.8047C42.4135 14.5569 44.2906 14.168 45.0585 13.9532C45.8061 13.7481 45.8605 13.5061 45.9227 12.9277C45.9859 12.3026 45.8158 9.26781 45.4396 7.45975C45.3608 7.08453 45.1091 6.77152 44.8077 6.55766C44.5404 6.372 43.51 5.47282 42.9404 4.8225C42.2852 4.07498 41.9877 3.37023 41.8808 2.82781C41.8808 2.82781 41.8623 2.71213 41.734 2.59062C41.6864 2.54008 41.6494 2.51577 41.5688 2.46911C40.446 1.77797 36.4771 0.693132 35.6673 0.623143C35.6245 0.619255 35.573 0.617314 35.5137 0.617314C34.8099 0.616341 33.0107 0.907964 31.3581 1.90045Z" fill="white"/>
<path d="M20.7305 9.19872C21.0085 9.19872 21.6569 9.17832 22.0914 9.22595C22.9283 9.3183 23.984 9.54964 24.6489 9.80627C25.5908 10.1727 30.0167 12.811 31.1609 13.4506C34.6078 15.4044 37.2285 17.2008 39.6879 19.1819C43.4479 22.2109 46.6936 25.723 50.7627 32.8493C50.9231 33.1254 51.0086 33.3373 51.0086 33.5959C51.0232 33.9934 50.6811 34.1373 50.5654 34.1684C49.8645 34.3793 46.992 35.0267 46.1415 35.3203C45.4192 35.575 45.2851 35.7354 45.182 36.0698C45.1441 36.2098 45.0217 36.8873 44.8788 37.0681C44.7369 37.2528 44.4054 37.2907 44.0535 37.2907C43.8367 37.2907 43.7288 37.3033 43.7511 37.0623C43.7715 36.8222 43.9145 36.1699 43.9961 35.7957C44.0768 35.4195 44.2333 35.1376 44.5755 34.9315C44.9176 34.7225 46.1084 34.53 46.7791 34.3657C47.447 34.2015 47.4849 33.8904 47.4722 33.3859C47.4722 33.9205 47.2866 34.0508 46.6139 34.2015C45.9315 34.3531 44.7854 34.5009 44.4083 34.7594C44.0418 35.0083 43.8999 35.3563 43.8318 35.6314C43.6034 36.584 43.4469 37.281 43.4731 37.5153C43.4955 37.7233 43.5781 37.7524 43.8105 37.7262C44.0418 37.7 44.6192 37.6183 45.4853 37.5862C45.7419 37.5862 45.7245 37.2742 45.7216 36.9301C45.7216 36.8056 45.7274 36.4343 45.7915 36.2525C45.8557 36.0727 45.9937 35.9055 46.2124 35.8384C46.6936 35.6887 49.363 34.9684 50.719 34.564C51.3129 34.3871 51.5618 34.1985 51.5073 33.6581C51.4597 33.1827 51.0252 32.478 50.2524 31.2687C49.4747 30.0497 48.4978 28.3855 47.1971 26.5444C44.8875 23.2744 42.6138 20.7217 39.789 18.4869C37.7019 16.8373 35.5138 15.5143 33.9079 14.5743C32.3021 13.6333 25.5228 9.92487 24.471 9.59534C23.5155 9.29594 22.7563 9.19775 22.0768 9.12874C21.6141 9.08208 21.2282 9.1161 20.818 9.1161C20.4291 9.1161 20.5662 8.80115 20.6206 8.67575C20.5798 8.76518 20.3475 9.19872 20.7305 9.19872Z" fill="white"/>
<path d="M33.0845 21.4255C32.825 21.7395 31.4951 23.8509 30.4161 25.8242C29.6356 27.2531 28.7005 29.2789 28.5187 29.7698C28.3525 30.217 28.3223 30.6282 28.3378 31.1317C28.3544 31.6323 28.438 32.4459 28.4662 33.0311C28.4953 33.591 28.3525 33.8389 27.7692 33.9449C27.2744 34.0333 24.6459 34.4747 23.9985 34.6321C23.3492 34.7896 23.146 35.1114 23.0197 35.5867C22.8914 36.0611 22.7057 36.9603 22.6979 37.1663C22.6931 37.3666 22.7183 37.4064 22.9059 37.3812C23.0926 37.3549 23.4901 37.3199 23.6515 37.3083C23.8206 37.2966 23.7866 37.1712 23.8372 36.9933C23.8848 36.8339 23.9188 36.5656 24.016 36.1525C24.1122 35.7403 24.2425 35.4195 24.8131 35.2513C25.3847 35.0822 27.9704 34.6662 28.4078 34.5466C28.8443 34.4251 29.1243 34.2375 29.1719 33.8C29.2215 33.3665 29.132 32.4391 29.1194 31.6858C29.1077 30.8955 29.098 30.5436 29.5423 29.6891C30.4006 28.0502 33.066 24.1697 34.8653 21.9232C34.8653 21.9232 34.6962 21.7978 34.4824 21.6423C34.217 21.4479 33.8807 21.2078 33.695 21.1485C33.6376 21.131 33.5851 21.1222 33.5365 21.1222C33.3693 21.1222 33.2469 21.2263 33.0845 21.4255Z" fill="white"/>
<path d="M32.7513 32.7628C32.2662 33.8292 32.1282 34.4367 32.1282 34.9655C32.1282 35.4253 32.1748 35.5876 32.1748 35.5876C32.1515 35.122 32.3245 34.6963 32.62 34.2695C33.0176 33.6979 33.6319 33.1147 34.3853 32.3322C35.7044 30.9635 38.921 27.8149 39.0367 27.7012C39.1086 27.6283 39.1951 27.5262 39.0172 27.3542C38.6984 27.0489 38.5312 26.8526 38.0287 26.3491C37.7225 26.0419 37.5096 25.8562 37.5212 25.7493C37.5096 25.7493 33.9246 29.7805 32.7513 32.7628Z" fill="white"/>
<path d="M20.7771 9.19874L50.5021 34.1879C50.8045 34.1218 50.9911 33.9021 51.0057 33.6882C51.0232 33.4442 50.9746 33.2216 50.8132 32.9407C46.677 25.7143 43.58 22.3402 39.8093 19.2937C39.1571 18.7659 38.497 18.24 37.8088 17.7297C35.8997 16.3143 33.8029 14.9534 31.2648 13.5099C30.5367 13.1016 28.4847 11.8924 26.8409 10.9631C25.8931 10.4274 25.0804 9.98515 24.7373 9.84323C24.0782 9.56716 23.0323 9.34261 22.1798 9.23665C21.9066 9.20263 21.6198 9.19485 21.3205 9.19485C21.1445 9.19485 20.9628 9.19777 20.7771 9.19874Z" fill="white"/>
<path d="M41.7584 2.2008C41.8381 2.24843 41.913 2.29607 41.9703 2.35634C42.1696 2.54395 42.2143 2.72864 42.2201 2.76849C42.3183 3.25648 42.5885 3.91165 43.2087 4.61835C43.7424 5.23368 44.8447 6.14451 45.0751 6.30587C45.2219 6.40503 45.3667 6.50515 45.4892 6.64221C45.5602 6.27282 45.6768 5.86552 45.842 5.46697C45.8148 5.50975 45.7886 5.5671 45.739 5.63028C45.6836 5.7061 45.5718 5.80332 45.4076 5.81109H45.4027H45.3901C45.2491 5.81012 45.1461 5.74985 45.0615 5.69055C44.4656 5.24632 42.7956 3.94762 42.5555 2.84626C42.4048 2.33009 42.5943 2.56533 42.0578 2.29412C41.9081 2.23483 41.7642 2.1765 41.6165 2.12206C41.667 2.14831 41.7156 2.17456 41.7584 2.2008Z" fill="white"/>
<path d="M45.2288 14.2614C44.4434 14.4772 42.507 14.8718 41.7605 15.1042C41.2044 15.3054 41.1335 15.4823 41.116 15.7603V15.7632C41.116 16.0208 41.2346 16.4223 41.4844 16.7664C41.7731 17.1795 43.1748 18.7718 44.736 20.7354C44.9168 20.9541 44.9897 21.0377 45.1404 21.1903C45.083 21.1155 42.8774 18.3246 42.2008 17.5538C42.0084 17.3273 41.7877 17.024 41.7847 16.6255C41.7828 16.2288 42.0871 15.6631 42.715 15.4463C43.5539 15.1401 45.0801 14.6453 45.4271 14.4567C45.7644 14.2623 45.8655 14.1778 45.9151 13.9474C45.7411 14.0883 45.5156 14.1807 45.2288 14.2614Z" fill="white"/>
<path d="M48.6552 3.47613C47.165 3.51112 46.1609 4.77676 45.8702 5.95978C46.1726 4.90216 47.1349 3.65304 48.662 3.65304C50.6043 3.65304 51.414 4.38696 51.6862 5.48054C51.3479 3.9748 50.058 3.47516 48.7719 3.47516C48.733 3.47516 48.6941 3.47516 48.6552 3.47613Z" fill="white"/>
<path d="M34.6311 32.4936C33.1254 34.0333 32.443 34.5116 32.4732 35.4691C32.4916 36.0329 32.5364 37.4239 32.5383 37.631C32.5383 37.7719 32.5519 37.907 32.3137 38.0315C32.1971 38.0947 31.9939 38.0947 31.8909 38.0947C31.4807 38.0947 27.5146 37.7078 26.1226 37.7078C24.7306 37.7078 23.5369 37.8623 22.8195 38.0422C22.7019 38.0694 22.4015 38.0509 22.28 37.8711C22.2158 37.7778 22.1944 37.6825 22.1886 37.5999C22.1585 37.8711 22.1332 38.189 22.1332 38.325C22.383 38.2764 22.974 38.1948 23.7352 38.1374C24.7102 38.0606 25.8145 38.0742 26.5493 38.0742C27.2852 38.0742 32.7444 38.3571 32.7648 38.3581C32.7288 37.9382 32.6744 36.9398 32.6588 36.3167C32.6539 36.1554 32.654 36.1573 32.6404 35.7111C32.6404 35.2231 32.7337 34.6535 33.2139 34.1451C33.4725 33.8642 34.4786 32.7482 35.543 31.5633C35.194 31.9152 34.879 32.2389 34.6311 32.4936Z" fill="white"/>
<path d="M39.196 27.9326C39.3506 27.9549 39.4838 28.0424 39.6034 28.1522C39.8862 28.4137 43.5655 31.0753 44.2965 31.6021C44.6086 31.8238 44.8963 31.9803 45.1937 32.0833C44.9439 31.9083 44.5755 31.6284 44.0924 31.2571C43.3886 30.7127 42.4904 30.004 41.5864 29.2876C40.8233 28.682 40.0583 28.0706 39.407 27.5447C39.3963 27.7741 39.2544 27.8966 39.196 27.9326Z" fill="white"/>
<path d="M48.0194 24.1104C47.9805 24.2057 47.9339 24.3349 47.9339 24.5196C47.9339 24.7481 48.0078 25.065 48.3014 25.4888C48.4773 25.7376 48.6474 25.9836 48.8107 26.2198C51.3673 29.9837 53.1491 33.6231 53.8227 35.3223C53.9705 35.7335 53.9404 35.9367 53.8072 36.1204C53.8072 36.1204 52.4764 37.4823 52.316 37.7369C52.247 37.839 52.1955 37.9245 52.1031 38.0043C52.0127 38.0869 51.7775 38.1394 51.5549 38.1209C49.5884 37.9372 47.4537 37.8584 46.3834 37.8584C44.9914 37.8584 44.1798 37.9936 43.717 38.0052C43.4663 38.012 43.2913 37.9537 43.2611 37.9119C43.2573 37.9051 43.2543 37.8993 43.2485 37.8934C43.2291 38.0888 43.2164 38.2356 43.2115 38.3017C44.0543 38.1491 45.1907 38.0849 46.4524 38.0849C46.8529 38.0849 47.2651 38.0917 47.6879 38.1024C49.7633 38.1666 52.176 38.3581 52.1819 38.3581C52.1877 38.3552 53.3396 36.8873 54.0531 36.2953C54.1795 36.1952 54.2281 36.203 54.2281 36.1048C54.2281 36.0378 54.1911 35.9124 54.1299 35.7413C53.3872 33.6153 50.5565 28.3652 48.3558 25.447C48.1458 25.168 48.0058 24.7957 48.0058 24.5362C48.0049 24.1989 48.1808 23.9529 48.3616 23.8129C48.5132 23.6875 48.8875 23.3687 49.3774 22.8817C48.6173 23.4523 48.0845 23.9053 48.0194 24.1104Z" fill="white"/>
<path d="M23.0051 18.8729C22.1672 18.9341 21.7599 19.0352 21.6782 19.0556C21.5966 19.0741 21.547 19.0683 21.5431 19.0683C21.5635 19.1013 21.5956 19.1645 21.6111 19.1898C21.6325 19.182 21.6646 19.1694 21.7268 19.1519C22.2313 19.008 23.355 18.94 24.7577 18.9351C26.0944 18.9351 27.5544 18.9448 28.3107 18.9808C28.9873 19.0129 29.9428 19.1042 30.7059 19.5213C31.4155 19.9169 32.9543 20.9842 33.0272 20.9201C32.4031 20.4797 31.7421 20.0326 31.1433 19.6671C30.354 19.1723 29.6035 18.8311 29.38 18.8379C26.9789 18.8 26.9789 18.8 25.5655 18.8C24.4651 18.8 23.4202 18.8418 23.0051 18.8729Z" fill="white"/>
<path d="M21.9358 12.0187C21.9728 12.0226 22.0282 12.0207 22.0963 12.0197C22.3266 12.0139 22.7077 12.01 23.0537 12.1752C23.6642 12.4775 25.2166 13.6246 25.4557 13.8734C25.7483 14.2117 26.0438 14.1777 25.7833 13.9522C24.8734 13.1065 23.496 12.1315 22.8486 11.9973C22.6202 11.9448 22.3004 11.9196 22.0389 11.9089C21.8406 11.8962 21.8552 11.6639 21.7969 11.6211C21.8037 11.662 21.8153 12.0109 21.9358 12.0187Z" fill="white"/>
<path d="M20.5078 18.3926C20.0791 18.4014 18.9923 18.9419 18.8261 19.0507C18.5734 19.1917 18.4635 19.1956 18.3051 19.0216C18.378 19.1975 18.5004 19.3035 18.6113 19.2665C18.723 19.2277 20.0266 18.5491 20.604 18.5491C20.7916 18.5491 20.847 18.554 20.9958 18.6143C20.9063 18.4626 20.8072 18.3917 20.537 18.3917C20.5272 18.3917 20.5175 18.3917 20.5078 18.3926Z" fill="white"/>
<path d="M33.2382 2.0161C32.9427 2.06373 31.9969 2.31841 31.8977 2.35244C31.7956 2.38452 31.7412 2.41757 31.6741 2.52741C31.607 2.63434 31.5778 2.87055 31.606 2.95998C31.6342 3.05427 31.7295 3.12427 31.8753 3.06303C32.0756 2.97943 33.2469 2.5488 33.453 2.48367C33.5424 2.45353 33.5794 2.40882 33.5969 2.36216C33.627 2.28537 33.6358 2.18427 33.627 2.10456C33.6154 2.01319 33.557 1.98597 33.4725 1.98597C33.4073 1.98597 33.3257 2.00249 33.2382 2.0161Z" fill="white"/>
<mask id="mask2_227_276" style="mask-type:luminance" maskUnits="userSpaceOnUse" x="0" y="0" width="77" height="55">
<path d="M0 54.3137H77V2.57415e-05H0V54.3137Z" fill="white"/>
</mask>
<g mask="url(#mask2_227_276)">
<path d="M33.2049 2.11616C33.3362 2.09283 33.4003 2.10547 33.4071 2.1774C33.4129 2.25225 33.4071 2.29794 33.4023 2.3271C33.3945 2.36598 33.3789 2.38834 33.3138 2.41264C33.1796 2.4593 32.3233 2.76453 32.1172 2.85105C31.9276 2.93076 31.8314 2.88604 31.8149 2.80731C31.7983 2.72565 31.8285 2.59831 31.8605 2.54096C31.8946 2.48458 31.9441 2.44667 32.0141 2.42431C32.1687 2.3689 32.9629 2.16088 33.2049 2.11616Z" fill="white"/>
</g>
<path d="M34.4824 3.35562C32.0561 3.41881 29.9408 4.44629 28.7529 4.93232C29.5996 4.64167 31.6566 3.79889 33.9507 3.66182C35.2114 3.58503 35.7169 3.69196 36.1786 4.21008C36.8494 4.94885 38.4105 7.04562 38.9665 8.11004C39.1862 8.53192 39.2835 8.91006 39.2543 9.23279C39.2096 9.72174 39.0346 10.0804 38.8965 10.4022C38.6545 10.9572 37.7612 12.7721 37.6066 13.0355C36.9563 14.1622 36.3332 14.1233 35.6702 13.9697C35.7043 13.9882 36.0085 14.132 36.2875 14.2448C37.0593 14.5607 37.5483 14.1223 37.9896 13.2931C38.1325 13.0346 39.0803 11.0301 39.3087 10.4518C39.4535 10.0892 39.6198 9.72952 39.6198 9.26875C39.6198 8.96741 39.5362 8.50373 39.3301 8.07407C38.8081 6.97368 37.1566 4.88275 36.4975 4.0944C35.9862 3.48977 35.5196 3.3527 34.7137 3.3527C34.6398 3.3527 34.5621 3.35368 34.4824 3.35562Z" fill="white"/>
<path d="M31.6206 26.1255C30.7593 27.4961 29.518 29.5413 29.3236 29.9914C29.1437 30.4045 29.0854 30.7807 29.0796 31.2687C29.0796 31.2736 29.1505 33.4812 29.1505 33.4938C29.1505 33.767 29.1097 33.9905 28.9639 34.1636C28.8152 34.3346 28.5906 34.4192 28.2795 34.4639C27.7682 34.5378 25.3565 34.9101 24.6936 35.0452C24.051 35.1833 23.7847 35.4788 23.6418 35.9055C23.5378 36.2127 23.4192 36.7347 23.4211 36.9641C23.4211 36.9641 23.4124 37.0895 23.4211 37.0895C23.4027 37.3335 23.4901 37.3199 23.4901 37.3199C23.4901 37.3199 26.282 37.1051 27.9433 37.2042C29.6055 37.3014 31.8986 37.5182 31.8986 37.5182C31.8986 37.5182 29.4849 37.0671 27.8431 36.9651C27.0246 36.9165 26.072 36.9359 25.3215 36.9563C24.5672 36.9758 24.0151 36.9962 24.0054 36.9456C23.9908 36.8776 23.949 36.7736 23.9665 36.5724C23.9937 36.4421 24.0277 36.2934 24.0734 36.1369C24.1803 35.7286 24.3709 35.3689 25.0066 35.2212C25.6161 35.0666 27.9598 34.6788 28.404 34.5699C28.8434 34.4591 29.1282 34.2958 29.1884 33.9371C29.205 33.8272 29.2195 33.5803 29.2186 33.3519C29.2186 32.8804 29.135 31.6313 29.1379 31.5535C29.1525 30.7846 29.1865 30.3783 29.6891 29.5472C30.4677 28.2524 33.3995 23.7954 34.8576 22.2488C34.9509 22.1507 34.9937 22.0671 35.155 22.0933C35.1239 22.0865 35.0919 22.0768 35.0598 22.0612C35.0345 22.0486 34.9179 21.9621 34.7643 21.8483C34.4007 22.2586 32.7628 24.3038 31.6206 26.1255Z" fill="white"/>
<mask id="mask3_227_276" style="mask-type:luminance" maskUnits="userSpaceOnUse" x="0" y="0" width="77" height="55">
<path d="M0 54.3137H77V2.57415e-05H0V54.3137Z" fill="white"/>
</mask>
<g mask="url(#mask3_227_276)">
<path d="M-0.000244141 47.6007V54.1068H1.79129V52.1053H3.39618C6.83733 52.1053 8.59095 51.001 8.59095 49.7801C8.59095 48.4688 6.70804 47.6007 3.55172 47.6007H-0.000244141ZM1.79129 51.4035V48.3269H3.2008C4.65697 48.3269 6.57876 48.5728 6.57876 49.7801C6.57876 50.5996 5.95468 51.4035 2.9675 51.4035H1.79129Z" fill="white"/>
<path d="M18.8068 54.1067V53.2882H14.3916C13.4429 53.2882 13.1697 52.8585 13.1697 52.1314V51.1788H18.3518V50.3623H13.1697V48.4171H18.5861V47.6006H11.3782V52.1703C11.3782 53.3922 11.8846 54.1067 13.5342 54.1067H18.8068Z" fill="white"/>
<path d="M30.2721 47.6007H28.4805V53.0919C27.9867 53.263 27.3257 53.4176 26.3634 53.4176C24.9869 53.4176 23.6231 53.0676 23.6231 51.8584V47.6007H21.8315V51.9886C21.8315 53.7821 23.6231 54.3129 25.5974 54.3129C27.4803 54.3129 29.0132 53.9231 30.2721 53.3923V47.6007Z" fill="white"/>
<path d="M35.2539 50.872C35.2539 49.0668 36.7869 48.2211 38.6562 48.2211C40.1881 48.2211 41.3712 48.6634 42.4881 49.0416V47.9499C41.306 47.6009 40.1881 47.4046 38.6562 47.4046C35.6573 47.4046 33.2155 48.781 33.2155 50.872C33.2155 53.0815 35.6573 54.3131 38.6562 54.3131C40.1512 54.3131 41.7221 54.003 42.6835 53.7571V51.1782H40.9172V53.1068C40.2679 53.3265 39.7993 53.4966 38.7874 53.4966C36.748 53.4966 35.2539 52.4846 35.2539 50.872Z" fill="white"/>
<path d="M53.377 54.1067V53.2882H48.9599C48.0131 53.2882 47.7399 52.8585 47.7399 52.1314V51.1788H52.923V50.3623H47.7399V48.4171H53.1563V47.6006H45.9484V52.1703C45.9484 53.3922 46.4538 54.1067 48.1035 54.1067H53.377Z" fill="white"/>
<path d="M61.1516 47.4044C58.1527 47.4044 55.6982 48.8071 55.6982 50.9058C55.6982 53.1066 58.1527 54.3129 61.1516 54.3129C64.1524 54.3129 66.5933 53.1066 66.5933 50.9058C66.5933 48.8071 64.1524 47.4044 61.1516 47.4044ZM61.1516 53.5868C59.1131 53.5868 57.7367 52.535 57.7367 50.9058C57.7367 49.1182 59.2696 48.2209 61.1516 48.2209C63.0219 48.2209 64.5538 49.1182 64.5538 50.9058C64.5538 52.535 63.1774 53.5868 61.1516 53.5868Z" fill="white"/>
<path d="M68.0636 48.534H71.635V54.1069H73.4275V48.534H76.9989V47.6008H68.0636V48.534Z" fill="white"/>
</g>
</svg>
