<svg width="72" height="93" viewBox="0 0 72 93" fill="none" xmlns="http://www.w3.org/2000/svg">
<path d="M36.6215 73.6315L28.0445 88.6158C27.7651 89.098 27.0468 88.6873 27.2312 88.1859L34.3715 71.657L20.1505 46.8182L0.661194 46.8232C0.686755 47.082 0.860709 47.4234 0.898238 47.5182L25.9134 91.2115C26.0648 91.4412 26.3597 91.7581 26.745 91.7623H45.2885C45.6629 91.7581 45.9637 91.5085 46.0626 91.348L71.1056 47.5773C71.1849 47.449 71.3567 47.0615 71.5678 46.5432H52.1447L36.0595 74.6101L36.6215 73.6315Z" fill="white"/>
<path d="M49.3481 46.6494H71.3649C71.7028 46.6494 71.9785 46.3842 71.996 46.0451C72.0247 45.4872 71.8992 44.8675 71.6264 44.3789L46.563 0.65241C46.2804 0.17937 45.7825 -0.0224852 45.2573 0.0019392H26.8662C26.3515 -0.0125416 25.7927 0.207366 25.4894 0.647873L25.4599 0.69421L0.525524 44.3811C0.224721 44.9224 0.0413883 45.6446 0.0013705 46.2616C-0.0214147 46.613 0.242623 46.916 0.591103 46.9393L0.63179 46.94H22.8112L35.5143 69.0165C35.689 69.3215 36.0756 69.4248 36.3779 69.2484C36.4785 69.1893 36.55 69.1161 36.6089 69.0146L49.3061 46.7344C49.3236 46.7056 49.3355 46.6805 49.3481 46.6494ZM48.173 46.165L36.0584 67.4217L23.8723 46.245L36.0605 24.9593L48.173 46.165ZM22.7449 45.6658H1.37499C1.44057 45.4244 1.51592 45.2268 1.62917 45.0047L26.5313 1.37269L26.6701 1.29352C26.7227 1.26949 26.7942 1.27625 26.8461 1.27625C26.9362 1.27837 45.3295 1.27624 45.3681 1.27238C45.413 1.26669 45.4537 1.28301 45.4837 1.31795L70.5234 45.0066C70.5872 45.1299 70.6307 45.2403 70.6685 45.3743H49.1812L36.6074 23.3656C36.4335 23.0595 36.0471 22.9551 35.7442 23.1308C35.644 23.1899 35.5706 23.262 35.5128 23.3646L22.7449 45.6658Z" fill="white"/>
<path d="M19.9658 45.7468H23.3505L36.0606 23.683L48.5517 45.5693L51.9792 45.571L37.7029 20.6401L44.9266 4.08863C45.1173 3.64349 44.3467 3.28331 44.0957 3.72276L19.9658 45.7468Z" fill="white"/>
<path d="M25.448 91.4328C25.7316 91.9348 26.1902 92.2375 26.7592 92.2997L26.7936 92.3039C26.8003 92.3046 45.3906 92.3039 45.3906 92.3039C45.8871 92.2877 46.4038 92.0253 46.6766 91.5982L71.7667 47.7441C71.869 47.5182 71.9251 46.7538 71.9588 46.3841L70.6981 46.2731L70.6322 47.0335L70.6042 47.2258L45.6192 90.8974C45.5505 90.9787 45.465 91.0225 45.3598 91.0282H26.8693C26.7381 91.0169 26.6067 90.908 26.5443 90.7977L1.54991 47.139C1.50223 47.0435 1.37883 46.7085 1.37184 46.6494C1.32943 46.3012 1.01389 46.0519 0.667512 46.0943C0.321138 46.1377 0.0743283 46.4556 0.116357 46.8049C0.133493 46.9449 0.171405 47.111 0.221571 47.2412L0.413715 47.7057L25.448 91.4328Z" fill="white"/>
</svg>
