<svg width="72" height="53" viewBox="0 0 72 53" fill="none" xmlns="http://www.w3.org/2000/svg">
<path d="M10.3205 39.6436H0V41.9252H3.80919V51.6541H6.51155V41.9252H10.3207L10.3205 39.6436ZM20.4123 47.5768C20.2048 48.1013 19.8666 48.5641 19.43 48.9212C18.9933 49.2783 18.4726 49.5179 17.9174 49.6172C17.7104 49.6538 17.5006 49.6724 17.2903 49.6728C17.0775 49.6728 16.8678 49.6527 16.6653 49.6172C16.1101 49.5181 15.5894 49.2786 15.1529 48.9215C14.7164 48.5644 14.3785 48.1014 14.1715 47.5768C13.9307 46.9626 13.8073 46.3087 13.8077 45.649C13.8077 44.9687 13.9372 44.317 14.1715 43.7201C14.3788 43.1956 14.7167 42.7329 15.1532 42.3759C15.5897 42.0188 16.1102 41.7793 16.6653 41.68C17.0791 41.6037 17.5033 41.6037 17.9171 41.68C18.4723 41.7791 18.993 42.0185 19.4297 42.3755C19.8663 42.7324 20.2045 43.1951 20.412 43.7195C20.8959 44.9598 20.8962 46.3366 20.4123 47.5768ZM17.2898 39.2827C13.7756 39.2827 10.9237 42.1329 10.9237 45.649C10.9237 49.1629 13.7756 52.0136 17.29 52.0136C20.8068 52.0136 23.6564 49.1629 23.6564 45.6493C23.6564 42.1329 20.8065 39.2827 17.2898 39.2827ZM23.699 39.6436H26.8821L29.8545 44.8074L32.827 39.6436H36.0089L31.2054 47.2107V51.6541H28.5036V47.2107L23.699 39.6436ZM42.4256 49.6739C42.6379 49.6739 42.8487 49.6524 43.0506 49.6172C43.6059 49.5184 44.1266 49.2792 44.5632 48.9222C44.9998 48.5651 45.3377 48.1023 45.5448 47.5777C46.0322 46.3384 46.0322 44.9605 45.5448 43.7212C45.3377 43.1965 44.9998 42.7335 44.5633 42.3763C44.1267 42.0191 43.606 41.7796 43.0506 41.6806C42.6361 41.6064 42.2117 41.6064 41.7971 41.6806C41.2421 41.7796 40.7216 42.0191 40.2853 42.3762C39.8489 42.7333 39.5113 43.1961 39.3045 43.7207C39.0631 44.3347 38.9393 44.9887 38.9395 45.6484C38.9395 46.3293 39.069 46.9793 39.3045 47.5774C39.5112 48.1019 39.8488 48.5648 40.2851 48.9218C40.7215 49.2789 41.242 49.5182 41.7971 49.6169C42.0046 49.6544 42.2149 49.6734 42.4256 49.6739ZM36.0581 45.6484C36.0581 42.1326 38.9072 39.2813 42.4253 39.2813C45.9395 39.2813 48.7914 42.1314 48.7914 45.6484C48.7911 49.162 45.9395 52.0151 42.4253 52.0151C38.9072 52.0151 36.0581 49.162 36.0581 45.6484ZM67.2229 46.9002L65.4544 42.1549L63.6835 46.9002H67.2229ZM68.0069 49.0016H62.8947L61.9113 51.6464H58.9047L63.7703 39.6347H67.1327L72 51.6464H68.9972L68.0069 49.0016ZM59.6988 39.6433H49.3786V41.9252H53.1895L53.1884 51.6538H55.8918L55.8907 41.9252H59.6988V39.6433ZM47.83 1.68518C44.5287 0.618729 40.4362 0 36 0C31.5638 0 27.4713 0.619015 24.17 1.68518C15.4006 4.50498 9.38234 10.3514 9.38234 17.0915C9.38234 26.5833 21.2814 34.3208 36 34.3208C50.6845 34.3208 62.6177 26.6177 62.6177 17.0915C62.6177 10.3514 56.5994 4.50498 47.83 1.68518ZM36 26.927C33.7992 26.927 32.0109 22.6283 31.9078 17.1949C33.2146 17.3324 34.5901 17.3668 36 17.3668C37.4099 17.3668 38.7857 17.2981 40.0925 17.1949C39.9894 22.6283 38.2011 26.927 36 26.927ZM32.1828 12.965C32.7671 9.14774 34.2461 6.46543 36 6.46543C37.7196 6.46543 39.1982 9.14774 39.8172 12.965C38.6136 13.0681 37.3068 13.1368 36 13.1368C34.6932 13.1368 33.4208 13.0681 32.1828 12.965ZM42.1558 12.6556C41.2618 6.70605 38.8545 2.40731 36 2.40731C33.1458 2.40731 30.7385 6.67167 29.8442 12.6553C24.4452 11.7957 20.6621 9.90425 20.6621 7.6688C20.6621 4.64247 27.5403 2.20107 36 2.20107C44.46 2.20107 51.3379 4.64247 51.3379 7.6688C51.3379 9.90425 47.5551 11.8303 42.1558 12.6556ZM13.2686 16.4722C13.2686 13.5493 14.4032 10.8323 16.3637 8.45969C16.3293 8.63156 16.3293 8.80342 16.3293 8.94092C16.3293 12.6206 21.8314 15.7157 29.5002 16.885V17.7103C29.5002 24.5194 31.3919 30.2968 34.0055 32.2916C22.3817 31.6039 13.2683 24.795 13.2683 16.4725L13.2686 16.4722ZM37.9948 32.326C40.6081 30.3315 42.4998 24.5538 42.4998 17.7446V16.9197C50.1686 15.7845 55.6707 12.655 55.6707 8.97529C55.6707 8.80342 55.6707 8.63156 55.6363 8.49406C57.5968 10.8323 58.7317 13.5837 58.7317 16.5069C58.7317 24.7947 49.6183 31.6039 37.9945 32.326H37.9948Z" fill="white"/>
</svg>
