<svg width="72" height="72" viewBox="0 0 72 72" fill="none" xmlns="http://www.w3.org/2000/svg">
<g clip-path="url(#clip0_227_61)">
<path fill-rule="evenodd" clip-rule="evenodd" d="M36.015 4.5718C53.2996 4.5718 67.4282 18.7004 67.4282 36.0147C67.4282 53.2994 53.2996 67.3984 36.015 67.3984C18.7302 67.3984 4.60156 53.2994 4.60156 36.0147C4.60156 18.7004 18.7302 4.5718 36.015 4.5718ZM14.9841 19.1133L26.2516 48.3441L30.3811 37.6664H41.2061L45.3358 48.3441L56.7212 18.7592C54.7154 16.3405 52.2967 14.2759 49.5833 12.683L41.6783 34.4514H38.1682H34.0387H30.5287L22.5942 12.5945C19.6742 14.2759 17.1079 16.4883 14.9841 19.1133ZM61.2639 26.458L48.433 59.936C57.0456 55.423 62.9745 46.3972 62.9745 36.0147C62.9745 32.6519 62.3845 29.437 61.2639 26.458ZM42.8286 62.1187L42.7401 61.4403L35.7789 43.3887L28.8177 61.4403L28.7884 62.0007C31.0889 62.6496 33.5077 62.9742 36.015 62.9742C38.3749 62.9742 40.6458 62.6791 42.8286 62.1187ZM23.0662 59.6409L10.5597 27.0479C9.5568 29.8499 9.02584 32.8586 9.02584 36.0147C9.02584 46.1612 14.6891 55.069 23.0662 59.6409ZM36.015 9.0255C38.3749 9.0255 40.7046 9.32071 42.9171 9.91067L36.1034 28.7585L29.2602 9.88102C31.4134 9.32071 33.6846 9.0255 36.015 9.0255Z" fill="white"/>
</g>
<defs>
<clipPath id="clip0_227_61">
<rect width="72" height="72" fill="white"/>
</clipPath>
</defs>
</svg>
