<svg width="31" height="34" viewBox="0 0 31 34" fill="none" xmlns="http://www.w3.org/2000/svg">
<path fill-rule="evenodd" clip-rule="evenodd" d="M16.8672 23.3042C20.447 23.3042 23.349 20.4022 23.349 16.8225C23.349 13.2427 20.447 10.3407 16.8672 10.3407C13.2875 10.3407 10.3855 13.2427 10.3855 16.8225C10.3855 20.4022 13.2875 23.3042 16.8672 23.3042ZM16.8672 20.864C19.0993 20.864 20.9088 19.0546 20.9088 16.8225C20.9088 14.5904 19.0993 12.7809 16.8672 12.7809C14.6352 12.7809 12.8257 14.5904 12.8257 16.8225C12.8257 19.0546 14.6352 20.864 16.8672 20.864Z" fill="#151515"/>
<path fill-rule="evenodd" clip-rule="evenodd" d="M15.7245 0.00618275C21.5389 -0.130609 26.3211 2.00246 30.0711 6.40539C30.3747 6.80627 30.6615 7.21913 30.9312 7.64395C29.3447 8.71854 27.7277 9.75067 26.0802 10.7403C25.1019 9.50977 23.9665 8.44323 22.6741 7.54074C18.9827 5.40512 15.244 5.31333 11.4583 7.2655C6.97509 10.0517 5.19755 14.0541 6.12564 19.2726C7.15771 23.2178 9.60042 25.8669 13.4538 27.22C13.9083 27.3452 14.3671 27.4484 14.8299 27.5297C15.6481 27.7328 16.4738 27.7786 17.3071 27.6673C19.9139 27.5365 22.2076 26.6305 24.1879 24.9493C24.8869 24.2926 25.5292 23.5931 26.1146 22.8507C27.7617 23.9017 29.3902 24.9797 31 26.0847C27.9513 30.3778 23.7999 32.8663 18.5456 33.5504C11.6241 34.0172 6.24558 31.3911 2.40997 25.6718C0.46812 22.347 -0.300198 18.7689 0.104879 14.9377C0.215248 14.6349 0.261144 14.3139 0.242497 13.9744C1.22137 8.72335 4.01955 4.76685 8.63716 2.10485C10.2546 1.20256 11.9749 0.594773 13.7978 0.281418C14.4571 0.246188 15.0994 0.154466 15.7245 0.00618275Z" fill="#151515"/>
<path fill-rule="evenodd" clip-rule="evenodd" d="M13.7978 0.281418C14.4571 0.246188 15.0994 0.154466 15.7245 0.00618275C15.0651 0.0414128 14.4229 0.133135 13.7978 0.281418Z" fill="#151515"/>
<path fill-rule="evenodd" clip-rule="evenodd" d="M0.104879 14.9377C0.215248 14.6349 0.261144 14.3139 0.242497 13.9744C0.14121 14.2784 0.0953836 14.5996 0.104879 14.9377Z" fill="#151515"/>
<path fill-rule="evenodd" clip-rule="evenodd" d="M14.8299 27.5297C15.6514 27.6379 16.4771 27.6838 17.3071 27.6673C16.4738 27.7786 15.6481 27.7328 14.8299 27.5297Z" fill="#151515"/>
</svg>
